<svg width="455" height="462" viewBox="0 0 455 462" fill="none" xmlns="http://www.w3.org/2000/svg">
<path d="M345.26 0.298149L316.01 14.9681C314.939 15.4235 314.025 16.184 313.383 17.1549C312.742 18.1259 312.4 19.2642 312.4 20.4282V34.1081C312.374 46.5445 316.001 58.7148 322.83 69.1082C328.1 77.1082 335.09 87.3981 346.72 93.2682H351.96C364.91 89.2682 374.57 78.7981 380.47 69.7981C387.299 59.4043 390.925 47.2344 390.9 34.7981V20.4282C390.9 19.2656 390.559 18.1286 389.919 17.1581C389.279 16.1875 388.369 15.4261 387.3 14.9681L353.98 0.768149C352.49 0.138149 346.74 -0.33185 345.26 0.298149Z" fill="#E0E0E0"/>
<path d="M344.08 0.76816L310.76 14.9682C309.689 15.4235 308.775 16.1841 308.133 17.155C307.491 18.1259 307.149 19.2642 307.15 20.4282V34.1082C307.151 46.7819 310.911 59.1706 317.954 69.7068C324.998 80.243 335.009 88.453 346.72 93.2982C359.66 89.2982 369.32 78.8282 375.23 69.8282C382.06 59.4238 385.686 47.2439 385.66 34.7982V20.4282C385.66 19.2642 385.318 18.1259 384.676 17.155C384.035 16.1841 383.121 15.4235 382.05 14.9682L348.73 0.76816C347.994 0.458752 347.203 0.299377 346.405 0.299377C345.606 0.299377 344.816 0.458752 344.08 0.76816Z" fill="#F5F5F5"/>
<path d="M385.55 31.0881C385.595 31.295 385.615 31.5065 385.61 31.7181C385.61 32.1881 385.66 32.7881 385.69 33.5281C385.72 34.2681 385.77 35.2781 385.69 36.3981C385.61 37.5181 385.69 38.7981 385.51 40.1981C385.33 41.5981 385.28 43.1981 384.99 44.7881C384.86 45.6081 384.76 46.4581 384.59 47.3281C384.42 48.1981 384.21 49.0781 384.02 49.9881C383.098 53.9363 381.809 57.7898 380.17 61.4981C378.486 65.1883 376.478 68.7221 374.17 72.0581C373.06 73.5581 372.03 75.0581 370.93 76.2481C370.39 76.8781 369.93 77.5181 369.38 78.0781L367.86 79.6881C366.91 80.6881 365.94 81.5681 365.13 82.3481C364.32 83.1281 363.58 83.7381 362.97 84.2281L361.66 85.3681C361.504 85.5104 361.333 85.6345 361.15 85.7381C361.283 85.5721 361.434 85.4212 361.6 85.2881L362.95 84.0781C363.54 83.5681 364.26 82.9281 365.04 82.0781C365.82 81.2281 366.78 80.4481 367.7 79.3881L369.19 77.7581C369.7 77.1981 370.19 76.5581 370.71 75.9281C371.79 74.6781 372.79 73.2281 373.88 71.7281C376.144 68.4073 378.118 64.8977 379.78 61.2381C381.4 57.5569 382.689 53.7385 383.63 49.8281L384.22 47.1881C384.4 46.3281 384.51 45.4781 384.65 44.6681C384.95 43.0481 385.07 41.5181 385.22 40.1181C385.37 38.7181 385.39 37.4581 385.47 36.3381C385.55 35.2181 385.54 34.2681 385.54 33.4781C385.54 32.6881 385.54 32.1381 385.54 31.6681C385.523 31.475 385.527 31.2806 385.55 31.0881Z" fill="#E0E0E0"/>
<path d="M343.92 60.8281L324.81 45.6381L330.11 38.9681L342.93 49.1581L361.65 28.2081L368 33.8881L343.92 60.8281Z" fill="white"/>
<path d="M434.2 75.1581H430.58V55.4681C430.58 53.2403 429.695 51.1037 428.12 49.5284C426.545 47.9531 424.408 47.0681 422.18 47.0681C419.952 47.0681 417.816 47.9531 416.24 49.5284C414.665 51.1037 413.78 53.2403 413.78 55.4681V75.1581H410.16V55.4681C410.16 52.2855 411.424 49.2333 413.675 46.9829C415.925 44.7324 418.978 43.4681 422.16 43.4681C425.343 43.4681 428.395 44.7324 430.645 46.9829C432.896 49.2333 434.16 52.2855 434.16 55.4681L434.2 75.1581Z" fill="#EBEBEB"/>
<path d="M435.29 61.7982H409.06C407.359 61.7982 405.98 63.1771 405.98 64.8782V84.1082C405.98 85.8092 407.359 87.1882 409.06 87.1882H435.29C436.991 87.1882 438.37 85.8092 438.37 84.1082V64.8782C438.37 63.1771 436.991 61.7982 435.29 61.7982Z" fill="#EBEBEB"/>
<path d="M424.66 75.1482C424.982 74.8212 425.236 74.4337 425.408 74.0081C425.579 73.5824 425.665 73.1271 425.66 72.6682C425.665 72.0028 425.483 71.3494 425.137 70.7815C424.79 70.2137 424.291 69.7541 423.697 69.4546C423.103 69.1551 422.437 69.0276 421.774 69.0865C421.111 69.1454 420.478 69.3884 419.946 69.788C419.414 70.1876 419.004 70.728 418.763 71.3481C418.522 71.9682 418.459 72.6434 418.581 73.2975C418.703 73.9516 419.005 74.5585 419.454 75.0499C419.903 75.5412 420.48 75.8974 421.12 76.0782L420.36 79.4582H423.75L423.07 76.0782C423.662 75.9091 424.2 75.5886 424.63 75.1482" fill="#FAFAFA"/>
<path d="M23.0898 362.538C19.206 360.108 14.8171 358.599 10.2598 358.128C8.15981 357.908 5.86981 357.968 4.18981 359.238C3.99477 359.35 3.83332 359.511 3.72246 359.707C3.6116 359.902 3.55541 360.124 3.55981 360.348C3.66226 360.665 3.87518 360.935 4.15981 361.108C6.88399 363.052 10.0883 364.213 13.4253 364.465C16.7622 364.717 20.1046 364.051 23.0898 362.538Z" fill="#E0E0E0"/>
<path d="M22.76 362.178C19.7895 359.994 17.0156 357.555 14.47 354.888C11.9192 352.201 10.1281 348.885 9.28001 345.278C9.11111 344.744 9.0603 344.179 9.13109 343.623C9.20188 343.067 9.39258 342.533 9.69001 342.058C16.29 347.218 21.48 353.898 22.76 362.178Z" fill="#E0E0E0"/>
<path d="M23.02 362.488C22.4113 358.879 22.4656 355.188 23.18 351.598C23.9143 347.979 25.9806 344.767 28.97 342.598C30.11 345.268 29.62 348.348 28.82 351.128C27.5766 355.448 25.6343 359.536 23.07 363.228" fill="#E0E0E0"/>
<path d="M29.4998 374.098C25.6128 374.727 22.0171 376.547 19.2098 379.308C16.2571 381.991 14.2008 385.517 13.3198 389.408C17.1798 389.168 20.4498 386.408 22.8198 383.408C25.1898 380.408 26.8198 377.018 29.4498 374.168" fill="#E0E0E0"/>
<path d="M30.9097 375.948C29.3616 372.02 28.8188 367.768 29.3305 363.576C29.8421 359.385 31.3921 355.388 33.8397 351.948C36.0797 359.948 35.2497 368.948 30.9097 375.948Z" fill="#E0E0E0"/>
<path d="M39.46 386.138C35.8662 385.92 32.2875 386.762 29.1677 388.559C26.048 390.357 23.5244 393.03 21.91 396.248C21.7 396.678 21.5 397.248 21.8 397.618C21.9503 397.766 22.1349 397.874 22.3373 397.934C22.5397 397.993 22.7536 398.001 22.96 397.958C26.42 397.738 29.4799 395.658 32.0099 393.288C34.5399 390.918 36.75 388.178 39.54 386.128" fill="#E0E0E0"/>
<path d="M39.1902 385.598C37.3476 379.666 37.2332 373.333 38.8602 367.338C39.5102 364.988 40.5901 362.518 42.7601 361.418C42.8471 361.359 42.9454 361.319 43.0486 361.3C43.1519 361.281 43.258 361.284 43.3601 361.308C43.5357 361.402 43.6682 361.559 43.7302 361.748C44.4637 363.389 44.7797 365.186 44.6501 366.978C44.5219 368.768 44.2477 370.543 43.8301 372.288C43.1501 375.528 42.8301 379.008 41.0001 381.808C40.5824 382.482 40.2051 383.18 39.8702 383.898C39.5402 384.608 39.5402 384.898 39.2302 385.418" fill="#E0E0E0"/>
<path d="M61.8401 388.958C61.0787 385.625 61.0538 382.166 61.7671 378.822C62.4805 375.478 63.9148 372.33 65.9701 369.598C66.2601 369.208 66.6501 368.798 67.1401 368.838C67.8801 368.908 68.0701 369.898 68.0401 370.638C67.7333 377.203 65.5847 383.548 61.8401 388.948" fill="#E0E0E0"/>
<path d="M63.8799 390.358C67.8426 391.293 71.9611 391.357 75.951 390.546C79.9409 389.734 83.7072 388.067 86.9899 385.658C83.1233 383.714 78.7012 383.173 74.4799 384.128C70.2999 385.128 66.4799 386.948 63.8799 390.358Z" fill="#E0E0E0"/>
<path d="M65.6001 386.108C69.9501 379.028 78.2801 374.408 86.6001 373.978C85.6001 377.358 82.8701 379.978 79.7401 381.568C76.5315 383.008 73.1394 383.997 69.6601 384.508C68.3201 384.768 66.4801 385.058 65.6601 386.108" fill="#E0E0E0"/>
<path d="M62.2698 365.478C63.5888 361.489 64.4871 357.374 64.9498 353.198C65.4146 348.996 64.562 344.754 62.5098 341.058C58.4498 348.908 58.0398 358.058 62.1498 365.908" fill="#E0E0E0"/>
<path d="M75.9302 358.598C80.6802 349.978 90.3602 343.088 100.15 342.118C96.3702 351.528 86.0702 358.798 75.9302 358.598Z" fill="#E0E0E0"/>
<path d="M72.9502 360.268C80.0202 361.348 86.0502 365.868 92.6602 368.608C94.0484 369.272 95.585 369.565 97.1202 369.458C97.8334 369.449 98.5266 369.221 99.1066 368.806C99.6866 368.391 100.125 367.808 100.364 367.136C100.603 366.464 100.629 365.734 100.441 365.047C100.253 364.359 99.858 363.745 99.3102 363.288C98.3746 362.412 97.2729 361.732 96.0702 361.288C88.8702 358.288 81.1402 358.218 73.5602 360.038" fill="#E0E0E0"/>
<path d="M68.8501 365.228C70.4501 365.688 71.0001 366.518 72.2701 367.598C76.6085 371.284 81.7432 373.913 87.2701 375.278C87.8401 375.418 88.5901 375.478 88.8801 374.968C89.1701 374.458 88.8101 373.968 88.4901 373.568C86.0966 370.752 82.9872 368.634 79.4901 367.438C76.0401 366.148 73.0501 364.598 68.9301 364.938" fill="#E0E0E0"/>
<path d="M64.23 335.258C67.1323 337.934 70.5622 339.972 74.2994 341.243C78.0366 342.514 81.9983 342.989 85.93 342.638C86.2952 342.65 86.6517 342.525 86.93 342.288C87.48 341.688 86.82 340.768 86.19 340.288C79.81 335.288 72.08 333.288 64.25 335.288" fill="#E0E0E0"/>
<path d="M69.71 333.248C73.551 330.423 78.0056 328.547 82.7101 327.772C87.4146 326.997 92.2357 327.345 96.78 328.788C93.2367 332.069 88.6932 334.062 83.88 334.448C79.1228 334.885 74.3258 334.479 69.71 333.248Z" fill="#E0E0E0"/>
<path d="M67.53 319.478C66.91 313.108 67.31 308.088 66.87 301.688C66.87 301.178 66.73 300.568 66.25 300.378C65.58 300.128 65.03 300.938 64.81 301.618C63.8819 304.583 63.6436 307.721 64.1133 310.792C64.5829 313.863 65.7482 316.786 67.52 319.338" fill="#E0E0E0"/>
<path d="M67.0698 320.178C71.2462 317.5 74.8465 314.015 77.6598 309.928C79.7398 307.078 81.4998 303.668 81.0298 300.168C79.5628 300.207 78.1219 300.565 76.8075 301.218C75.4932 301.871 74.3371 302.803 73.4198 303.948C71.6037 306.254 70.2828 308.909 69.5398 311.748C68.6998 314.548 68.1098 317.428 67.1098 320.178" fill="#E0E0E0"/>
<path d="M77.4401 317.298C86.9497 313.789 95.755 308.608 103.44 301.998C100.34 300.748 96.7901 301.498 93.6901 302.748C86.6525 305.414 80.8381 310.57 77.3501 317.238" fill="#E0E0E0"/>
<path d="M69.9897 323.668C74.7676 324.346 79.6156 324.37 84.3997 323.738C89.0697 322.958 93.4897 321.098 97.8497 319.268C98.2312 319.154 98.5582 318.905 98.7697 318.568C98.8355 318.365 98.8393 318.148 98.7805 317.943C98.7217 317.738 98.603 317.555 98.4397 317.418C98.1021 317.154 97.7089 316.969 97.2897 316.878C92.5397 315.558 87.4197 316.178 82.7497 317.748C78.3018 319.272 74.0253 321.256 69.9897 323.668Z" fill="#E0E0E0"/>
<path d="M42.6598 335.478C39.3898 328.878 39.6598 321.178 42.4298 314.378C44.4298 317.378 44.6598 321.258 44.2998 324.868C43.9398 328.478 42.8398 332.178 42.7598 335.798" fill="#E0E0E0"/>
<path d="M29.57 328.888C25.4781 328.834 21.42 329.634 17.6556 331.239C13.8912 332.844 10.5037 335.218 7.70996 338.208C11.8426 338.704 16.0283 337.93 19.71 335.988C23.3548 334.053 26.7926 331.751 29.97 329.118" fill="#E0E0E0"/>
<path d="M20.79 325.948C16.79 325.628 12.96 325.138 9.11998 326.308C7.18253 326.854 5.38547 327.81 3.85131 329.113C2.31716 330.416 1.08198 332.035 0.22998 333.858C3.99621 334.16 7.77442 333.445 11.17 331.788C14.5454 330.134 17.7651 328.18 20.79 325.948Z" fill="#E0E0E0"/>
<path d="M33.7901 326.088C30.2001 323.738 26.5101 321.338 22.3301 320.358C18.1501 319.378 13.3301 320.108 10.3901 323.258C13.7701 325.258 17.8801 325.478 21.8101 325.478C25.7401 325.478 30.5401 325.428 34.2401 326.738" fill="#E0E0E0"/>
<path d="M33.8098 326.278C27.6698 320.278 25.3498 309.418 27.8098 301.178C32.6548 308.598 34.7754 317.469 33.8098 326.278Z" fill="#E0E0E0"/>
<path d="M50.6602 309.198C51.8202 306.498 52.6602 303.678 53.6602 300.938C54.6069 298.158 56.0615 295.577 57.9502 293.328C59.8635 291.048 62.5968 289.611 65.5602 289.328C64.6136 293.482 62.8124 297.393 60.2711 300.812C57.7299 304.231 54.5044 307.084 50.8002 309.188" fill="#E0E0E0"/>
<path d="M47.6598 312.758C45.7498 310.118 43.5298 306.538 40.9298 304.568C38.3298 302.598 34.9298 301.408 31.7798 302.158C33.4225 305.036 35.7126 307.492 38.4689 309.332C41.2251 311.172 44.3718 312.345 47.6598 312.758Z" fill="#E0E0E0"/>
<path d="M48.2502 309.418C46.8891 306.27 45.8829 302.979 45.2502 299.608C44.6218 296.197 45.1645 292.673 46.7902 289.608C50.1602 295.978 51.2502 302.818 48.4602 309.468" fill="#E0E0E0"/>
<path d="M50.73 289.598C52.64 283.288 58.42 278.598 64.67 276.498C65.4418 276.181 66.2795 276.058 67.11 276.138C67.5251 276.181 67.918 276.347 68.2386 276.614C68.5592 276.881 68.793 277.238 68.91 277.638C69.14 278.708 68.25 279.638 67.41 280.388C62.5316 284.557 56.8567 287.69 50.73 289.598Z" fill="#E0E0E0"/>
<path d="M50.8002 284.468C51.0402 280.388 51.2902 276.258 52.6202 272.398C53.9502 268.538 56.5002 264.928 60.2102 263.238C60.8402 267.348 59.0302 271.438 56.8402 274.978C54.6502 278.518 52.0102 281.858 50.7002 285.808" fill="#E0E0E0"/>
<path d="M50.6598 287.268C49.0798 282.668 48.9198 276.818 46.1598 272.808C44.2298 270.008 41.1598 268.098 39.4898 265.128C38.4869 267.976 38.6267 271.101 39.8798 273.848C41.1335 276.565 42.8604 279.036 44.9798 281.148C46.9798 283.328 48.7598 284.968 50.6598 287.268Z" fill="#E0E0E0"/>
<path d="M50.7299 422.818C50.6099 422.818 50.4999 392.118 50.4899 354.248C50.4799 316.378 50.5799 285.668 50.6999 285.668C50.8199 285.668 50.9299 316.358 50.9399 354.248C50.9499 392.138 50.8499 422.818 50.7299 422.818Z" fill="#E0E0E0"/>
<path d="M77.5601 330.838C77.1932 331.025 76.8078 331.172 76.4101 331.278L73.2301 332.348C70.5501 333.258 66.8701 334.578 62.8801 336.218C58.8901 337.858 55.1901 339.288 53.0701 341.128C52.2111 341.832 51.5265 342.726 51.0701 343.738C50.7601 344.458 50.7101 344.898 50.6701 344.898C50.6301 344.898 50.6701 344.778 50.6701 344.568C50.7209 344.265 50.7979 343.968 50.9001 343.678C51.3006 342.607 51.9603 341.652 52.8201 340.898C54.1028 339.814 55.5382 338.924 57.0801 338.258C58.7801 337.458 60.6701 336.628 62.6701 335.808C66.6701 334.168 70.3801 332.888 73.0901 332.048C74.4501 331.628 75.5501 331.318 76.3201 331.108C76.724 330.979 77.1392 330.889 77.5601 330.838Z" fill="#E0E0E0"/>
<path d="M86.3598 309.238C86.2659 309.366 86.1549 309.48 86.0298 309.578L85.0298 310.508L81.3498 313.848L69.1098 324.748C64.3298 329.008 60.1998 333.068 57.3398 336.128C55.8998 337.658 54.7698 338.928 53.9998 339.808L53.1098 340.808C53.0168 340.934 52.9056 341.045 52.7798 341.138C52.8544 340.998 52.945 340.867 53.0498 340.748C53.2298 340.498 53.4998 340.128 53.8698 339.678C54.5998 338.758 55.6998 337.458 57.1098 335.898C60.8034 331.86 64.709 328.022 68.8098 324.398C73.6098 320.158 77.9698 316.338 81.1398 313.598C82.6998 312.258 83.9798 311.168 84.9098 310.358L85.9098 309.498C86.0472 309.391 86.1986 309.304 86.3598 309.238Z" fill="#E0E0E0"/>
<path d="M63.9699 329.078C63.8399 329.018 64.8399 326.718 65.8399 323.798C66.8399 320.878 67.3099 318.428 67.4399 318.448C67.3362 320.329 66.9381 322.181 66.2599 323.938C65.8304 325.184 65.333 326.406 64.7699 327.598C64.569 328.124 64.3001 328.622 63.9699 329.078Z" fill="#E0E0E0"/>
<path d="M50.7597 347.658C50.4795 347.406 50.231 347.12 50.0197 346.808L48.1297 344.388C46.5497 342.338 44.3597 339.508 41.8997 336.388C39.4397 333.268 37.1897 330.518 35.5497 328.508L33.6597 326.148C33.4067 325.868 33.1823 325.563 32.9897 325.238C33.2817 325.478 33.5496 325.746 33.7897 326.038C34.2797 326.568 34.9797 327.358 35.7897 328.338C37.4897 330.338 39.7897 333.038 42.2497 336.138C44.7097 339.238 46.8597 342.138 48.3797 344.198C49.1497 345.198 49.7497 346.108 50.1597 346.708C50.3915 347.004 50.5926 347.322 50.7597 347.658Z" fill="#E0E0E0"/>
<path d="M44.8701 340.108C43.6844 338.796 42.8396 337.213 42.4101 335.498C41.9423 333.992 41.7525 332.413 41.8501 330.838H42.0501C42.0228 331.029 41.9582 331.212 41.8601 331.378C41.8601 331.378 41.8601 331.168 41.8601 330.808H42.0601C42.1536 332.342 42.4151 333.861 42.8401 335.338C43.4009 336.975 44.0793 338.569 44.8701 340.108Z" fill="#E0E0E0"/>
<path d="M37.2802 330.598C36.7483 330.198 36.1709 329.863 35.5602 329.598C34.0124 329.131 32.3824 329.002 30.7802 329.218C29.1577 329.336 27.5485 329.594 25.9702 329.988C25.3144 330.19 24.6463 330.351 23.9702 330.468C24.5541 330.108 25.1923 329.845 25.8602 329.688C27.4435 329.198 29.0773 328.889 30.7302 328.768C32.389 328.548 34.0764 328.73 35.6502 329.298C36.3277 329.53 36.9039 329.989 37.2802 330.598Z" fill="#E0E0E0"/>
<path d="M35.4798 328.238C35.4798 328.308 34.4798 327.838 32.8398 327.238C28.5662 325.784 23.993 325.44 19.5498 326.238C17.8498 326.538 16.8298 326.858 16.7998 326.788C17.0148 326.65 17.2514 326.549 17.4998 326.488C18.1538 326.259 18.8218 326.072 19.4998 325.928C21.7344 325.438 24.0285 325.276 26.3098 325.448C28.587 325.626 30.8267 326.131 32.9598 326.948C33.6039 327.195 34.2318 327.482 34.8398 327.808C35.0739 327.918 35.2898 328.063 35.4798 328.238Z" fill="#E0E0E0"/>
<path d="M50.6597 318.448C49.8768 316.265 49.2355 314.034 48.7397 311.768C48.0937 309.54 47.5927 307.271 47.2397 304.978C48.0235 307.162 48.6681 309.393 49.1697 311.658C49.8099 313.888 50.3075 316.156 50.6597 318.448Z" fill="#E0E0E0"/>
<path d="M50.8198 318.448C50.2051 317.066 49.4933 315.73 48.6898 314.448C47.7893 313.235 46.7337 312.146 45.5498 311.208C45.9962 311.322 46.4102 311.538 46.7598 311.838C47.6511 312.486 48.4255 313.28 49.0498 314.188C50.0052 315.427 50.6159 316.897 50.8198 318.448Z" fill="#E0E0E0"/>
<path d="M50.7299 406.448C50.7299 406.448 50.5899 405.708 50.2399 404.448C49.7497 402.613 49.0797 400.831 48.2399 399.128C45.2832 393.574 41.6268 388.422 37.3599 383.798C34.9299 381.018 32.5699 378.398 30.5699 375.888C28.7696 373.685 27.1446 371.345 25.7099 368.888C24.745 367.229 23.9252 365.489 23.2599 363.688C23.0299 363.048 22.8699 362.548 22.7799 362.208C22.7214 362.036 22.6779 361.858 22.6499 361.678C22.6499 361.678 22.9099 362.378 23.4199 363.628C24.1465 365.389 25.0022 367.094 25.9799 368.728C27.4452 371.146 29.0828 373.455 30.8799 375.638C32.8799 378.118 35.2599 380.718 37.6899 383.498C41.9878 388.151 45.6345 393.365 48.5299 398.998C49.3657 400.727 50.0128 402.541 50.4599 404.408C50.5783 404.916 50.6685 405.43 50.7299 405.948C50.7453 406.114 50.7453 406.282 50.7299 406.448Z" fill="#E0E0E0"/>
<path d="M74.9802 379.068C74.5693 379.326 74.1454 379.563 73.7102 379.778C72.5579 380.422 71.4549 381.151 70.4102 381.958C68.8625 383.156 67.4144 384.477 66.0802 385.908C64.5602 387.508 63.0002 389.368 61.4002 391.368C58.2102 395.368 55.2202 398.928 53.4002 401.758C52.4902 403.158 51.8302 404.338 51.4002 405.168C51.1947 405.609 50.9609 406.037 50.7002 406.448C50.7002 406.448 50.7002 406.318 50.8202 406.088C50.9402 405.858 51.0402 405.518 51.2402 405.088C51.8077 403.886 52.4489 402.721 53.1602 401.598C55.5892 397.952 58.2235 394.446 61.0502 391.098C62.6502 389.098 64.2402 387.238 65.7902 385.628C67.154 384.202 68.636 382.894 70.2202 381.718C71.3007 380.909 72.4521 380.2 73.6602 379.598C73.9845 379.432 74.3184 379.285 74.6602 379.158C74.8669 379.078 74.9735 379.048 74.9802 379.068Z" fill="#E0E0E0"/>
<path d="M75.45 387.948C74.5639 388.143 73.6649 388.273 72.76 388.338C70.6021 388.559 68.4695 388.981 66.39 389.598C64.3331 390.266 62.4054 391.281 60.69 392.598C59.38 393.598 58.76 394.448 58.69 394.408C58.62 394.368 58.79 394.158 59.08 393.788C59.4977 393.266 59.9667 392.787 60.48 392.358C62.1813 390.938 64.1403 389.858 66.25 389.178C68.3555 388.55 70.5266 388.167 72.72 388.038C73.6253 387.924 74.5392 387.894 75.45 387.948Z" fill="#E0E0E0"/>
<path d="M59.4799 393.418C59.3399 393.338 60.5499 391.488 61.4799 388.998C62.4099 386.508 62.5699 384.288 62.7199 384.318C62.8053 384.794 62.8053 385.282 62.7199 385.758C62.5835 386.916 62.3219 388.056 61.9399 389.158C61.5286 390.246 61.0058 391.288 60.3799 392.268C60.1473 392.7 59.843 393.089 59.4799 393.418Z" fill="#E0E0E0"/>
<path d="M82.83 355.208C82.6996 355.307 82.5545 355.384 82.4 355.438L81.14 356.008C80.58 356.248 79.91 356.548 79.14 356.948C78.37 357.348 77.49 357.748 76.57 358.298L75.11 359.128C74.6 359.428 74.11 359.768 73.56 360.128C72.48 360.778 71.4 361.588 70.24 362.408C67.789 364.268 65.4763 366.303 63.32 368.498C61.204 370.718 59.2554 373.091 57.49 375.598C56.7 376.788 55.93 377.898 55.31 378.998C55 379.538 54.67 380.058 54.39 380.578L53.66 382.078C53.14 383.018 52.77 383.918 52.4 384.688C52.03 385.458 51.75 386.138 51.53 386.688C51.31 387.238 51.14 387.628 51 387.968C50.9452 388.122 50.8748 388.269 50.79 388.408C50.8091 388.246 50.853 388.087 50.92 387.938L51.37 386.628C51.57 386.058 51.82 385.358 52.17 384.578C52.52 383.798 52.87 382.878 53.38 381.928C53.62 381.438 53.88 380.928 54.14 380.408C54.4 379.888 54.73 379.408 55.05 378.808C55.66 377.688 56.42 376.568 57.2 375.368C60.7101 370.236 65.0612 365.732 70.07 362.048C71.24 361.228 72.34 360.428 73.43 359.788C73.98 359.458 74.49 359.108 75 358.788L76.49 357.968C77.43 357.438 78.33 357.048 79.1 356.678C79.751 356.353 80.4186 356.063 81.1 355.808L82.4 355.308C82.5397 355.261 82.6838 355.227 82.83 355.208Z" fill="#E0E0E0"/>
<path d="M63.6602 368.068C63.8186 367.452 64.1688 366.902 64.6602 366.498C65.8431 365.469 67.3522 364.891 68.9202 364.868C70.4529 364.861 71.972 365.157 73.3902 365.738C73.9891 365.931 74.5579 366.207 75.0802 366.558C74.4681 366.443 73.8686 366.269 73.2902 366.038C71.8877 365.553 70.414 365.307 68.9302 365.308C67.459 365.34 66.0364 365.841 64.8702 366.738C64.4322 367.149 64.0276 367.593 63.6602 368.068Z" fill="#E0E0E0"/>
<path d="M60.77 371.028C61.3393 369.775 61.7459 368.454 61.98 367.098C62.061 365.726 61.9703 364.348 61.71 362.998C61.9673 363.335 62.1389 363.73 62.21 364.148C62.7272 366.125 62.4809 368.225 61.52 370.028C61.14 370.708 60.81 371.058 60.77 371.028Z" fill="#E0E0E0"/>
<path d="M29.52 410.848C30.18 422.588 33.72 434.518 39.16 446.588H62.81C68 434.638 71.29 422.728 71.87 410.848H29.52Z" fill="#E0E0E0"/>
<path d="M68.0398 429.838C68.0398 429.958 60.2498 430.058 50.6498 430.058C41.0498 430.058 33.2598 429.958 33.2598 429.838C33.2598 429.718 41.0398 429.598 50.6598 429.598C60.2798 429.598 68.0398 429.718 68.0398 429.838Z" fill="#FAFAFA"/>
<path d="M67.5099 434.088C67.5099 434.208 60.2099 434.308 51.2099 434.308C42.2099 434.308 34.8999 434.208 34.8999 434.088C34.8999 433.968 42.1999 433.868 51.2099 433.868C60.2199 433.868 67.5099 433.968 67.5099 434.088Z" fill="#FAFAFA"/>
<path d="M39.5398 418.598C39.8332 422.222 39.8332 425.864 39.5398 429.488C39.2465 425.864 39.2465 422.222 39.5398 418.598Z" fill="#FAFAFA"/>
<path d="M52.2098 418.598C52.5031 422.352 52.5031 426.124 52.2098 429.878C51.9164 426.124 51.9164 422.352 52.2098 418.598Z" fill="#FAFAFA"/>
<path d="M64.1101 418.458C64.4035 422.289 64.4035 426.137 64.1101 429.968C63.8168 426.137 63.8168 422.289 64.1101 418.458Z" fill="#FAFAFA"/>
<path d="M71.1198 418.598C71.1198 418.718 61.9898 418.818 50.7298 418.818C39.4698 418.818 30.3198 418.718 30.3198 418.598C30.3198 418.478 39.4598 418.378 50.7298 418.378C61.9998 418.378 71.1198 418.428 71.1198 418.598Z" fill="#FAFAFA"/>
<path d="M438.05 309.128C440.214 308.172 442.051 306.603 443.332 304.614C444.614 302.625 445.284 300.304 445.26 297.938C445.26 291.258 440.26 285.818 433.97 285.798C427.68 285.778 422.6 291.158 422.58 297.798C422.535 300.183 423.196 302.527 424.481 304.536C425.766 306.545 427.617 308.129 429.8 309.088C412.35 311.718 413.14 330.678 413.14 330.678L454.41 330.868C454.41 330.868 455.35 311.738 438.05 309.128Z" fill="#EBEBEB"/>
<path d="M252.53 33.4081C254.05 33.1096 255.451 32.3761 256.562 31.2969C257.673 30.2176 258.447 28.8388 258.79 27.3281C259.075 26.3587 259.159 25.3414 259.037 24.3384C258.916 23.3353 258.591 22.3676 258.084 21.4941C257.576 20.6206 256.895 19.8596 256.084 19.2577C255.272 18.6557 254.347 18.2253 253.364 17.9928C252.38 17.7602 251.36 17.7304 250.365 17.9051C249.37 18.0797 248.421 18.4553 247.575 19.0088C246.73 19.5623 246.007 20.2821 245.449 21.1244C244.891 21.9668 244.51 22.9139 244.33 23.9081C243.945 25.4243 244.019 27.0205 244.543 28.4946C245.066 29.9686 246.015 31.2541 247.27 32.1881C235.74 31.2781 233.45 43.4981 233.45 43.4981L259.75 49.7281C259.75 49.7281 263.19 37.5981 252.53 33.4081Z" fill="#EBEBEB"/>
<path d="M439.18 135.208C440.441 134.419 441.443 133.278 442.062 131.925C442.68 130.572 442.888 129.068 442.66 127.598C442.585 126.625 442.311 125.678 441.855 124.815C441.4 123.952 440.772 123.191 440.011 122.58C439.25 121.969 438.372 121.521 437.431 121.263C436.49 121.004 435.506 120.942 434.539 121.079C433.573 121.216 432.645 121.549 431.813 122.059C430.981 122.569 430.262 123.243 429.7 124.042C429.139 124.84 428.747 125.745 428.55 126.701C428.352 127.656 428.352 128.643 428.55 129.598C428.734 131.086 429.356 132.486 430.337 133.62C431.318 134.754 432.614 135.571 434.06 135.968C423.45 139.178 425.64 150.898 425.64 150.898L451.32 147.308C451.32 147.308 450.17 135.278 439.18 135.208Z" fill="#F5F5F5"/>
<path d="M27.14 138.838L13.27 127.808L17.11 122.968L26.42 130.358L40 115.168L44.61 119.288L27.14 138.838Z" fill="#F5F5F5"/>
<path d="M447.32 446.938C447.32 447.088 347.17 447.198 223.67 447.198C100.17 447.198 0 447.088 0 446.938C0 446.788 100.12 446.678 223.67 446.678C347.22 446.678 447.32 446.798 447.32 446.938Z" fill="#263238"/>
<path d="M46.0599 154.808L15.3899 170.198C14.2773 170.683 13.331 171.483 12.6681 172.499C12.0052 173.516 11.6547 174.705 11.6599 175.918V190.268C11.6247 203.321 15.4254 216.097 22.5899 227.008C28.1199 235.428 35.4499 246.188 47.6399 252.338H53.1399C66.7199 248.198 76.8499 237.168 83.0399 227.728C90.2074 216.818 94.0116 204.042 93.9799 190.988V175.918C93.9783 174.7 93.6194 173.508 92.9475 172.491C92.2757 171.475 91.3204 170.677 90.1999 170.198L55.2099 155.308C53.6599 154.648 47.6599 154.148 46.0599 154.808Z" fill="#0B8FAC"/>
<path opacity="0.3" d="M46.0599 154.808L15.3899 170.198C14.2773 170.683 13.331 171.483 12.6681 172.499C12.0052 173.516 11.6547 174.705 11.6599 175.918V190.268C11.6247 203.321 15.4254 216.097 22.5899 227.008C28.1199 235.428 35.4499 246.188 47.6399 252.338H53.1399C66.7199 248.198 76.8499 237.168 83.0399 227.728C90.2074 216.818 94.0116 204.042 93.9799 190.988V175.918C93.9783 174.7 93.6194 173.508 92.9475 172.491C92.2757 171.475 91.3204 170.677 90.1999 170.198L55.2099 155.308C53.6599 154.648 47.6599 154.148 46.0599 154.808Z" fill="black"/>
<path d="M44.8301 155.308L9.8801 170.198C8.75965 170.677 7.80435 171.475 7.13248 172.491C6.46061 173.508 6.10167 174.7 6.1001 175.918V190.268C6.10088 203.558 10.0433 216.549 17.4287 227.597C24.814 238.646 35.3105 247.256 47.5901 252.338C61.1601 248.198 71.2901 237.168 77.4901 227.728C84.6576 216.818 88.4617 204.042 88.4301 190.988V175.918C88.4294 174.701 88.0719 173.51 87.4019 172.493C86.7319 171.477 85.7787 170.679 84.6601 170.198L49.6601 155.308C48.8954 154.987 48.0744 154.822 47.2451 154.822C46.4158 154.822 45.5948 154.987 44.8301 155.308Z" fill="#0B8FAC"/>
<path opacity="0.3" d="M55.5586 220.395C67.3551 215.82 73.2089 202.548 68.6333 190.751C64.0577 178.955 50.7855 173.101 38.9889 177.676C27.1924 182.252 21.3386 195.524 25.9142 207.321C30.4898 219.117 43.762 224.971 55.5586 220.395Z" fill="black"/>
<path d="M47.26 200.308C52.5122 200.308 56.77 196.05 56.77 190.798C56.77 185.546 52.5122 181.288 47.26 181.288C42.0078 181.288 37.75 185.546 37.75 190.798C37.75 196.05 42.0078 200.308 47.26 200.308Z" fill="white"/>
<path d="M29.8999 213.968C31.4293 210.768 33.8431 208.074 36.8557 206.202C39.8682 204.331 43.3537 203.361 46.8999 203.408C50.5362 203.409 54.1051 204.39 57.2306 206.248C60.3561 208.107 62.9227 210.774 64.6599 213.968C64.6599 213.968 59.0499 222.268 46.6599 221.968C43.4489 221.955 40.2805 221.231 37.3827 219.848C34.4848 218.465 31.9293 216.457 29.8999 213.968Z" fill="white"/>
<path d="M70.1699 199.038C70.1585 198.915 70.1585 198.791 70.1699 198.668C70.1699 198.398 70.1699 198.038 70.0799 197.588C70.0799 197.348 70.0799 197.078 70.0799 196.788C70.0799 196.498 69.9799 196.178 69.9299 195.788C69.8256 194.995 69.6652 194.209 69.4499 193.438C68.9062 191.303 68.0468 189.26 66.8999 187.378C65.3957 184.881 63.4269 182.695 61.0999 180.938C58.2888 178.8 55.0137 177.355 51.5399 176.718C47.5517 175.984 43.4398 176.329 39.6299 177.718C38.5989 178.076 37.5961 178.511 36.6299 179.018C35.6638 179.548 34.735 180.142 33.8499 180.798C32.9497 181.475 32.0914 182.207 31.2799 182.988C30.4844 183.813 29.7429 184.688 29.0599 185.608C27.66 187.504 26.5697 189.61 25.8299 191.848C24.2697 196.487 24.2697 201.509 25.8299 206.148C26.5653 208.388 27.6559 210.495 29.0599 212.388C29.7428 213.311 30.4844 214.19 31.2799 215.018C32.089 215.799 32.9474 216.527 33.8499 217.198C35.5861 218.522 37.5197 219.565 39.5799 220.288C43.3898 221.677 47.5017 222.022 51.4899 221.288C54.6573 220.692 57.6629 219.433 60.3099 217.594C62.9569 215.756 65.1856 213.378 66.8499 210.618C67.984 208.749 68.8301 206.719 69.3599 204.598C69.5744 203.824 69.7348 203.035 69.8399 202.238C69.8399 201.898 69.9599 201.578 69.9899 201.238C70.0199 200.898 69.9899 200.678 69.9899 200.438L70.0799 199.348C70.0697 199.225 70.0697 199.101 70.0799 198.978C70.0907 199.101 70.0907 199.225 70.0799 199.348C70.0799 199.628 70.0799 199.988 70.0799 200.448C70.0799 200.688 70.0799 200.958 70.0799 201.248C70.0799 201.538 69.9999 201.868 69.9499 202.248C69.87 203.056 69.7228 203.855 69.5099 204.638C69.0025 206.804 68.1625 208.879 67.0199 210.788C64.3024 215.428 60.0455 218.968 54.9888 220.795C49.932 222.622 44.395 222.62 39.3399 220.788C38.3105 220.418 37.3081 219.977 36.3399 219.468C35.3555 218.914 34.413 218.289 33.5199 217.598C32.5898 216.916 31.7077 216.171 30.8799 215.368C30.0839 214.537 29.3423 213.655 28.6599 212.728C27.2204 210.792 26.0995 208.638 25.3399 206.348C24.5805 203.985 24.1793 201.521 24.1499 199.038C24.1777 196.555 24.5823 194.09 25.3499 191.728C26.102 189.437 27.2197 187.282 28.6599 185.348C29.363 184.408 30.1245 183.513 30.9399 182.668C31.7647 181.866 32.6434 181.121 33.5699 180.438C34.4566 179.762 35.3888 179.147 36.3599 178.598C37.328 178.086 38.3304 177.642 39.3599 177.268C43.2487 175.859 47.4431 175.514 51.5099 176.268C54.7358 176.888 57.7919 178.191 60.4737 180.088C63.1555 181.985 65.401 184.433 67.0599 187.268C68.2028 189.181 69.0427 191.259 69.5499 193.428C69.7627 194.208 69.9099 195.004 69.9899 195.808C69.9899 196.158 70.0999 196.478 70.1199 196.808V197.618C70.1199 198.078 70.1199 198.438 70.1199 198.708C70.1457 198.817 70.1625 198.927 70.1699 199.038Z" fill="#263238"/>
<path d="M88.3102 187.098C88.3569 187.318 88.3803 187.543 88.3802 187.768C88.3802 188.248 88.3802 188.878 88.4602 189.668C88.5402 190.458 88.5402 191.498 88.4602 192.668C88.4602 193.258 88.4602 193.878 88.4602 194.548C88.4602 195.218 88.4602 195.918 88.3302 196.648C88.1902 198.118 88.0902 199.738 87.7802 201.458C87.6502 202.318 87.5402 203.208 87.3602 204.118C87.1802 205.028 86.9602 205.958 86.7602 206.918C85.7986 211.052 84.4596 215.089 82.7602 218.978C81.0041 222.848 78.9057 226.552 76.4902 230.048C75.3302 231.618 74.2602 233.138 73.1002 234.448C72.5402 235.108 72.0202 235.778 71.4702 236.368L69.8802 238.048C68.8802 239.158 67.8802 240.048 67.0202 240.838C66.3007 241.546 65.5429 242.213 64.7502 242.838L63.2702 244.038C63.1079 244.184 62.9302 244.311 62.7402 244.418C62.8824 244.251 63.0397 244.097 63.2102 243.958L64.6202 242.688C65.2502 242.148 66.0002 241.478 66.8202 240.688C67.6402 239.898 68.6402 238.968 69.6102 237.858L71.1702 236.158C71.7102 235.568 72.1702 234.898 72.7702 234.238C73.9002 232.928 74.9502 231.408 76.1002 229.828C78.4738 226.347 80.5416 222.666 82.2802 218.828C83.9701 214.956 85.3088 210.94 86.2802 206.828L86.9002 204.048C87.0802 203.148 87.2002 202.258 87.3502 201.408C87.6702 199.708 87.7902 198.098 87.9502 196.638C88.0402 195.908 88.1002 195.208 88.1202 194.548L88.2102 192.678C88.3002 191.508 88.2802 190.498 88.2802 189.678C88.2802 188.858 88.2802 188.268 88.2802 187.778C88.2731 187.551 88.2832 187.324 88.3102 187.098Z" fill="#263238"/>
<path d="M331.47 446.938H95.0104C93.4611 446.912 91.9323 446.581 90.5111 445.964C89.09 445.346 87.8045 444.455 86.7281 443.34C85.6516 442.226 84.8055 440.91 84.2379 439.469C83.6704 438.027 83.3925 436.487 83.4204 434.938V73.5181C83.3925 71.969 83.6704 70.4295 84.2379 68.9877C84.8055 67.546 85.6516 66.2303 86.7281 65.1158C87.8045 64.0013 89.09 63.1099 90.5111 62.4926C91.9323 61.8753 93.4611 61.5442 95.0104 61.5181H331.47C333.019 61.5442 334.548 61.8754 335.968 62.4928C337.389 63.1102 338.674 64.0018 339.749 65.1164C340.825 66.231 341.67 67.5468 342.236 68.9885C342.803 70.4302 343.08 71.9694 343.05 73.5181V434.958C343.077 436.505 342.798 438.042 342.231 439.482C341.663 440.921 340.817 442.234 339.742 443.347C338.667 444.459 337.383 445.349 335.963 445.965C334.544 446.582 333.017 446.912 331.47 446.938Z" fill="#263238"/>
<path d="M217.77 429.408C217.808 431.591 217.195 433.737 216.01 435.57C214.824 437.404 213.12 438.843 211.113 439.705C209.107 440.567 206.889 440.812 204.743 440.409C202.597 440.007 200.619 438.974 199.062 437.444C197.504 435.913 196.438 433.954 195.998 431.815C195.558 429.676 195.764 427.455 196.591 425.434C197.417 423.413 198.827 421.683 200.64 420.466C202.453 419.249 204.587 418.598 206.77 418.598C209.662 418.574 212.445 419.699 214.508 421.726C216.57 423.753 217.744 426.516 217.77 429.408Z" fill="#455A64"/>
<path d="M239.84 81.8981H186.84C186.346 81.8903 185.859 81.7853 185.406 81.5891C184.953 81.3928 184.542 81.1093 184.199 80.7545C183.855 80.3998 183.585 79.9809 183.403 79.5216C183.222 79.0624 183.132 78.5719 183.14 78.0781C183.124 77.0799 183.505 76.1161 184.198 75.3981C184.892 74.6801 185.842 74.2665 186.84 74.2481H239.84C240.838 74.2665 241.788 74.6801 242.482 75.3981C243.176 76.1161 243.556 77.0799 243.54 78.0781C243.548 78.5719 243.459 79.0624 243.277 79.5216C243.095 79.9809 242.825 80.3998 242.481 80.7545C242.138 81.1093 241.728 81.3928 241.275 81.5891C240.821 81.7853 240.334 81.8903 239.84 81.8981Z" fill="#455A64"/>
<path d="M334.65 89.0281H91.3901V410.888H334.65V89.0281Z" fill="white"/>
<path d="M334.651 89.0281H324.271V410.888H334.651V89.0281Z" fill="#F5F5F5"/>
<path d="M329.45 204.668C328.593 204.665 327.771 204.323 327.166 203.716C326.56 203.108 326.22 202.286 326.22 201.428V130.238C326.22 129.381 326.56 128.558 327.166 127.951C327.771 127.343 328.593 127.001 329.45 126.998C330.31 126.998 331.134 127.339 331.741 127.947C332.349 128.555 332.69 129.379 332.69 130.238V201.428C332.69 202.287 332.349 203.112 331.741 203.719C331.134 204.327 330.31 204.668 329.45 204.668Z" fill="#E0E0E0"/>
<path d="M302.92 162.278H123.56C122.192 162.278 120.879 161.734 119.912 160.767C118.944 159.799 118.4 158.487 118.4 157.118C118.4 155.75 118.944 154.437 119.912 153.469C120.879 152.502 122.192 151.958 123.56 151.958H302.92C304.289 151.958 305.601 152.502 306.569 153.469C307.537 154.437 308.08 155.75 308.08 157.118C308.08 158.487 307.537 159.799 306.569 160.767C305.601 161.734 304.289 162.278 302.92 162.278Z" fill="#E0E0E0"/>
<path d="M275.33 124.598H162.5C161.132 124.598 159.819 124.055 158.852 123.087C157.884 122.119 157.34 120.807 157.34 119.438C157.34 118.07 157.884 116.757 158.852 115.789C159.819 114.822 161.132 114.278 162.5 114.278H275.33C276.699 114.278 278.011 114.822 278.979 115.789C279.947 116.757 280.49 118.07 280.49 119.438C280.49 120.807 279.947 122.119 278.979 123.087C278.011 124.055 276.699 124.598 275.33 124.598Z" fill="#0B8FAC"/>
<path d="M277.45 183.048H149.03C147.662 183.048 146.349 182.505 145.381 181.537C144.414 180.569 143.87 179.257 143.87 177.888C143.87 176.52 144.414 175.207 145.381 174.239C146.349 173.272 147.662 172.728 149.03 172.728H277.45C278.128 172.728 278.799 172.862 279.425 173.121C280.051 173.38 280.62 173.76 281.099 174.239C281.578 174.719 281.958 175.287 282.217 175.913C282.477 176.54 282.61 177.211 282.61 177.888C282.61 178.566 282.477 179.237 282.217 179.863C281.958 180.489 281.578 181.058 281.099 181.537C280.62 182.016 280.051 182.396 279.425 182.655C278.799 182.915 278.128 183.048 277.45 183.048Z" fill="#E0E0E0"/>
<path d="M219.47 273.598H120.66C119.292 273.598 117.98 273.055 117.012 272.087C116.044 271.119 115.5 269.807 115.5 268.438C115.5 267.761 115.634 267.09 115.893 266.464C116.153 265.837 116.533 265.269 117.012 264.789C117.491 264.31 118.06 263.93 118.686 263.671C119.312 263.412 119.983 263.278 120.66 263.278H219.47C220.148 263.278 220.819 263.412 221.445 263.671C222.071 263.93 222.64 264.31 223.119 264.789C223.598 265.269 223.978 265.837 224.238 266.464C224.497 267.09 224.63 267.761 224.63 268.438C224.63 269.807 224.087 271.119 223.119 272.087C222.151 273.055 220.839 273.598 219.47 273.598Z" fill="#E0E0E0"/>
<path d="M300.02 251.968H120.66C119.292 251.968 117.98 251.425 117.012 250.457C116.044 249.489 115.5 248.177 115.5 246.808C115.5 246.131 115.634 245.461 115.893 244.835C116.153 244.21 116.533 243.641 117.012 243.163C117.492 242.685 118.061 242.306 118.687 242.047C119.313 241.789 119.983 241.657 120.66 241.658H300.02C300.698 241.657 301.368 241.789 301.994 242.047C302.62 242.306 303.189 242.685 303.669 243.163C304.148 243.641 304.528 244.21 304.788 244.835C305.047 245.461 305.18 246.131 305.18 246.808C305.18 247.486 305.047 248.157 304.788 248.783C304.528 249.409 304.148 249.978 303.669 250.457C303.19 250.936 302.621 251.316 301.995 251.575C301.369 251.835 300.698 251.968 300.02 251.968Z" fill="#E0E0E0"/>
<path d="M300.02 311.248H143.03C140.18 311.248 137.87 313.558 137.87 316.408C137.87 319.258 140.18 321.568 143.03 321.568H300.02C302.87 321.568 305.18 319.258 305.18 316.408C305.18 313.558 302.87 311.248 300.02 311.248Z" fill="#E0E0E0"/>
<path d="M300.02 343.598H120.66C119.292 343.598 117.98 343.055 117.012 342.087C116.044 341.119 115.5 339.807 115.5 338.438C115.506 337.073 116.052 335.766 117.019 334.802C117.986 333.839 119.295 333.298 120.66 333.298H300.02C300.698 333.298 301.369 333.432 301.995 333.691C302.621 333.95 303.19 334.33 303.669 334.809C304.148 335.289 304.528 335.857 304.788 336.483C305.047 337.11 305.18 337.781 305.18 338.458C305.175 339.823 304.629 341.131 303.662 342.094C302.695 343.057 301.386 343.598 300.02 343.598Z" fill="#E0E0E0"/>
<path d="M300.02 366.018H120.66C119.292 366.018 117.98 365.474 117.012 364.507C116.044 363.539 115.5 362.227 115.5 360.858C115.5 359.49 116.044 358.177 117.012 357.209C117.98 356.242 119.292 355.698 120.66 355.698H300.02C300.698 355.698 301.369 355.832 301.995 356.091C302.621 356.35 303.19 356.73 303.669 357.209C304.148 357.689 304.528 358.257 304.788 358.883C305.047 359.509 305.18 360.181 305.18 360.858C305.18 362.227 304.637 363.539 303.669 364.507C302.701 365.474 301.389 366.018 300.02 366.018Z" fill="#E0E0E0"/>
<path d="M128.73 316.408C128.73 317.469 128.416 318.505 127.826 319.387C127.237 320.269 126.399 320.956 125.419 321.361C124.439 321.766 123.361 321.872 122.321 321.664C121.281 321.457 120.326 320.945 119.577 320.195C118.827 319.444 118.318 318.488 118.112 317.448C117.906 316.407 118.014 315.329 118.421 314.35C118.828 313.371 119.517 312.534 120.4 311.947C121.282 311.359 122.32 311.046 123.38 311.048C124.8 311.051 126.161 311.617 127.164 312.622C128.167 313.626 128.73 314.988 128.73 316.408Z" fill="#0B8FAC"/>
<path d="M300.02 231.818H143.02C141.652 231.818 140.339 231.274 139.372 230.307C138.404 229.339 137.86 228.027 137.86 226.658C137.86 225.29 138.404 223.977 139.372 223.009C140.339 222.042 141.652 221.498 143.02 221.498H300.02C300.698 221.498 301.369 221.632 301.995 221.891C302.621 222.15 303.19 222.53 303.669 223.009C304.148 223.489 304.528 224.057 304.788 224.683C305.047 225.31 305.18 225.98 305.18 226.658C305.18 227.336 305.047 228.007 304.788 228.633C304.528 229.259 304.148 229.828 303.669 230.307C303.19 230.786 302.621 231.166 301.995 231.425C301.369 231.685 300.698 231.818 300.02 231.818Z" fill="#E0E0E0"/>
<path d="M123.381 232.018C126.341 232.018 128.741 229.618 128.741 226.658C128.741 223.698 126.341 221.298 123.381 221.298C120.42 221.298 118.021 223.698 118.021 226.658C118.021 229.618 120.42 232.018 123.381 232.018Z" fill="#0B8FAC"/>
<path d="M295.011 398.828H254.761C252.58 398.828 250.49 397.962 248.948 396.421C247.407 394.879 246.541 392.788 246.541 390.608C246.541 388.428 247.407 386.337 248.948 384.796C250.49 383.254 252.58 382.388 254.761 382.388H295.011C297.191 382.388 299.281 383.254 300.823 384.796C302.364 386.337 303.231 388.428 303.231 390.608C303.231 392.788 302.364 394.879 300.823 396.421C299.281 397.962 297.191 398.828 295.011 398.828Z" fill="#0B8FAC"/>
<path d="M87.6599 10.9481L45.9399 31.8781C44.4133 32.5272 43.1111 33.6107 42.1954 34.994C41.2798 36.3773 40.791 37.9992 40.7899 39.6581V59.1781C40.7405 76.9432 45.9151 94.3308 55.6699 109.178C63.1899 120.598 73.1499 135.238 89.7399 143.598H97.2199C115.68 137.968 129.46 122.958 137.89 110.128C147.645 95.2808 152.819 77.8932 152.77 60.1281V39.6581C152.772 38.0037 152.289 36.385 151.381 35.0022C150.473 33.6194 149.179 32.5332 147.66 31.8781L100.1 11.5981C97.9799 10.7281 89.7799 10.0481 87.6599 10.9481Z" fill="#0B8FAC"/>
<path opacity="0.3" d="M87.6599 10.9481L45.9399 31.8781C44.4133 32.5272 43.1111 33.6107 42.1954 34.994C41.2798 36.3773 40.791 37.9992 40.7899 39.6581V59.1781C40.7405 76.9432 45.9151 94.3308 55.6699 109.178C63.1899 120.598 73.1499 135.238 89.7399 143.598H97.2199C115.68 137.968 129.46 122.958 137.89 110.128C147.645 95.2808 152.819 77.8932 152.77 60.1281V39.6581C152.772 38.0037 152.289 36.385 151.381 35.0022C150.473 33.6194 149.179 32.5332 147.66 31.8781L100.1 11.5981C97.9799 10.7281 89.7799 10.0481 87.6599 10.9481Z" fill="black"/>
<path d="M85.9801 11.5981L38.4501 31.8781C36.9245 32.5276 35.6237 33.6116 34.7098 34.995C33.7958 36.3784 33.309 38.0001 33.3101 39.6581V59.1781C33.3125 77.2529 38.6751 94.921 48.7197 109.948C58.7642 124.975 73.0395 136.685 89.7401 143.598C108.2 137.968 121.98 122.958 130.4 110.128C140.159 95.2828 145.334 77.8939 145.28 60.1281V39.6581C145.281 38.0001 144.794 36.3784 143.88 34.995C142.966 33.6116 141.666 32.5276 140.14 31.8781L92.6601 11.5981C91.6046 11.1459 90.4683 10.9127 89.3201 10.9127C88.1718 10.9127 87.0355 11.1459 85.9801 11.5981Z" fill="#0B8FAC"/>
<path d="M145.13 54.8681C145.143 54.9443 145.143 55.0219 145.13 55.0981C145.13 55.2781 145.13 55.4981 145.13 55.7681C145.13 56.4081 145.18 57.2681 145.22 58.3581C145.26 59.4481 145.32 60.8481 145.22 62.4481C145.22 63.2481 145.22 64.0981 145.14 64.9981C145.14 65.4581 145.14 65.9181 145.14 66.3981C145.14 66.8781 145.05 67.3981 145 67.8681C144.8 69.8681 144.67 72.0681 144.25 74.3981C144.06 75.5581 143.91 76.7781 143.67 78.0081C143.43 79.2381 143.13 80.5081 142.85 81.8081C141.529 87.429 139.692 92.9157 137.36 98.1981C134.978 103.456 132.133 108.493 128.86 113.248C127.28 115.388 125.86 117.458 124.26 119.248C123.49 120.148 122.79 121.058 122.04 121.858L119.88 124.158C118.54 125.658 117.16 126.848 116.01 127.958C115.42 128.498 114.89 129.018 114.38 129.468L112.98 130.598L110.98 132.238L110.45 132.658C110.33 132.748 110.26 132.788 110.26 132.778C110.26 132.768 110.26 132.718 110.41 132.608L110.91 132.158L112.84 130.448L114.25 129.218C114.76 128.768 115.25 128.218 115.85 127.678C116.98 126.558 118.33 125.358 119.65 123.848L121.78 121.528C122.52 120.728 123.21 119.818 123.96 118.918C125.51 117.138 126.96 115.068 128.5 112.918C131.741 108.173 134.562 103.154 136.93 97.9181C139.241 92.6623 141.079 87.2107 142.42 81.6281C142.71 80.3381 142.98 79.0781 143.26 77.8581C143.54 76.6381 143.66 75.4181 143.86 74.2581C144.3 71.9381 144.45 69.7481 144.67 67.7581C144.73 67.2681 144.78 66.7581 144.83 66.3081C144.88 65.8581 144.83 65.3681 144.89 64.9181C144.93 64.0181 144.97 63.1681 145.01 62.3681C145.12 60.7781 145.09 59.3681 145.09 58.2881V55.7781V55.0981C145.088 55.0196 145.102 54.9414 145.13 54.8681Z" fill="#263238"/>
<path d="M108.12 81.0981H103.05V53.5082C102.961 50.4446 101.681 47.5365 99.4827 45.4011C97.2842 43.2658 94.34 42.0713 91.2752 42.0713C88.2104 42.0713 85.2662 43.2658 83.0677 45.4011C80.8692 47.5365 79.5895 50.4446 79.5002 53.5082V81.0981H74.4302V53.5082C74.5373 49.1116 76.3591 44.9312 79.5064 41.8596C82.6538 38.788 86.8774 37.0686 91.2752 37.0686C95.673 37.0686 99.8965 38.788 103.044 41.8596C106.191 44.9312 108.013 49.1116 108.12 53.5082V81.0981Z" fill="#F5F5F5"/>
<path d="M108.17 62.3781H74.3901C71.1813 62.3781 68.5801 64.9793 68.5801 68.1881V92.1481C68.5801 95.3569 71.1813 97.9581 74.3901 97.9581H108.17C111.379 97.9581 113.98 95.3569 113.98 92.1481V68.1881C113.98 64.9793 111.379 62.3781 108.17 62.3781Z" fill="white"/>
<path d="M108.17 97.9581C108.679 97.9044 109.183 97.8175 109.68 97.6981C110.892 97.3486 111.955 96.6118 112.708 95.6005C113.461 94.5891 113.863 93.359 113.85 92.0981C113.85 90.9281 113.85 89.6581 113.85 88.2881C113.85 85.5581 113.85 82.4482 113.85 79.0082C113.85 75.5681 113.85 71.8181 113.85 67.7781C113.775 66.7712 113.429 65.8035 112.848 64.9777C112.266 64.152 111.473 63.499 110.55 63.0881C109.567 62.6831 108.5 62.5186 107.44 62.6081H104.08L74.3903 62.5981C73.1423 62.5977 71.9306 63.0179 70.9508 63.7908C69.971 64.5637 69.2804 65.6444 68.9903 66.8581C68.8605 67.4624 68.8068 68.0805 68.8303 68.6981V74.3281C68.8303 79.3281 68.8303 84.0481 68.8303 88.5981C68.9203 90.8581 68.4503 93.1882 69.6103 94.9682C70.1238 95.8425 70.8644 96.5616 71.7535 97.0493C72.6425 97.5369 73.6469 97.775 74.6603 97.7381H85.9103L102.2 97.8282H106.62H107.77C107.903 97.8155 108.037 97.8155 108.17 97.8282C108.037 97.8431 107.903 97.8431 107.77 97.8282H106.62H102.2L85.9103 97.9081H74.6603C73.834 97.9452 73.0089 97.8125 72.236 97.5181C71.463 97.2237 70.7587 96.774 70.1664 96.1967C69.5741 95.6194 69.1064 94.9268 68.7924 94.1617C68.4783 93.3965 68.3244 92.5751 68.3403 91.7481V88.5981C68.3403 84.0481 68.3403 79.2781 68.3403 74.3281V68.7381C68.3102 68.0669 68.3674 67.3947 68.5103 66.7381C68.8352 65.4276 69.5927 64.2649 70.6603 63.4381C71.7367 62.5868 73.0679 62.1219 74.4403 62.1181H104.02H107.38C108.508 62.0321 109.639 62.2172 110.68 62.6581C111.675 63.1023 112.53 63.8088 113.154 64.702C113.777 65.5952 114.146 66.6413 114.22 67.7281C114.22 71.8081 114.22 75.5481 114.22 78.9881C114.22 82.4281 114.22 85.5381 114.22 88.2681C114.22 89.6381 114.22 90.9081 114.22 92.0781C114.221 93.1733 113.917 94.2469 113.34 95.1782C112.556 96.4713 111.296 97.4049 109.83 97.7781C109.293 97.9412 108.73 98.0022 108.17 97.9581Z" fill="#263238"/>
<path d="M94.7601 81.0881C95.2178 80.6317 95.5807 80.0892 95.8278 79.492C96.0749 78.8947 96.2015 78.2545 96.2001 77.6081C96.206 76.6765 95.9514 75.7617 95.4652 74.967C94.9789 74.1723 94.2803 73.5293 93.4481 73.1104C92.6159 72.6916 91.6832 72.5136 90.7552 72.5965C89.8273 72.6794 88.9409 73.0199 88.1962 73.5797C87.4514 74.1394 86.8779 74.8961 86.5402 75.7644C86.2025 76.6327 86.1141 77.5781 86.2851 78.494C86.456 79.4098 86.8794 80.2597 87.5075 80.9478C88.1357 81.6358 88.9436 82.1347 89.8401 82.3881L88.7701 87.1281H93.5201L92.5201 82.3881C93.3501 82.1511 94.1046 81.7032 94.7101 81.0881" fill="#0B8FAC"/>
<path d="M404.481 116.768V157.288C404.571 164.288 405.601 175.288 394.481 174.928C384.891 173.928 382.341 164.798 382.271 158.258C382.271 155.158 382.201 152.568 382.171 152.258C382.171 152.258 371.671 151.398 370.781 141.018C370.351 136.018 370.311 125.608 370.381 116.198C370.423 111.325 372.299 106.646 375.634 103.092C378.969 99.538 383.52 97.3697 388.381 97.0182L389.381 96.9482C400.251 96.7882 404.661 105.918 404.481 116.768Z" fill="#FFBF9D"/>
<path d="M382.2 152.258C386.997 151.89 391.588 150.155 395.43 147.258C395.43 147.258 392.69 155.088 382.26 154.908L382.2 152.258Z" fill="#FF9A6C"/>
<path d="M388.15 120.458C388.36 120.668 389.56 119.698 391.29 119.658C393.02 119.618 394.29 120.458 394.51 120.238C394.73 120.018 394.39 119.748 393.82 119.358C393.059 118.847 392.157 118.588 391.24 118.618C390.331 118.647 389.455 118.966 388.74 119.528C388.22 119.968 388.05 120.358 388.15 120.458Z" fill="#263238"/>
<path d="M388.12 125.368C388.141 125.736 388.306 126.081 388.579 126.328C388.852 126.575 389.212 126.705 389.58 126.688C389.76 126.69 389.937 126.655 390.103 126.586C390.269 126.518 390.419 126.416 390.545 126.289C390.671 126.161 390.77 126.009 390.836 125.843C390.902 125.676 390.934 125.497 390.93 125.318C390.907 124.953 390.743 124.611 390.472 124.365C390.202 124.119 389.846 123.987 389.48 123.998C389.301 123.998 389.123 124.034 388.957 124.103C388.792 124.172 388.641 124.273 388.515 124.4C388.389 124.527 388.289 124.678 388.221 124.845C388.153 125.011 388.119 125.189 388.12 125.368Z" fill="#263238"/>
<path d="M383.801 132.598C382.939 132.398 382.055 132.304 381.171 132.318C380.761 132.318 380.37 132.248 380.28 131.978C380.214 131.559 380.277 131.13 380.46 130.748C380.78 129.748 381.1 128.678 381.46 127.558C382.81 123.018 383.761 119.298 383.581 119.248C383.401 119.198 382.151 122.828 380.801 127.368C380.481 128.488 380.17 129.558 379.87 130.578C379.653 131.088 379.621 131.658 379.78 132.188C379.848 132.329 379.947 132.452 380.07 132.547C380.194 132.643 380.337 132.708 380.49 132.738C380.723 132.766 380.958 132.766 381.191 132.738C382.063 132.795 382.939 132.748 383.801 132.598Z" fill="#263238"/>
<path d="M388.89 113.058C389.06 113.448 390.45 113.158 392.12 113.238C393.79 113.318 395.12 113.688 395.35 113.318C395.43 113.148 395.17 112.788 394.61 112.448C393.864 112.029 393.029 111.793 392.174 111.758C391.319 111.724 390.468 111.891 389.69 112.248C389.1 112.538 388.82 112.878 388.89 113.058Z" fill="#263238"/>
<path d="M372.381 115.658C372.571 115.978 373.921 115.658 375.571 115.578C377.221 115.498 378.57 115.738 378.75 115.408C378.82 115.248 378.551 114.968 377.981 114.718C377.209 114.41 376.38 114.274 375.551 114.318C374.71 114.341 373.884 114.546 373.131 114.918C372.571 115.208 372.301 115.508 372.381 115.658Z" fill="#263238"/>
<path d="M356.66 106.888C356.719 106.677 356.819 106.48 356.954 106.308C357.09 106.137 357.259 105.994 357.45 105.888C358.279 105.511 359.194 105.362 360.1 105.458C362.87 105.407 365.571 104.586 367.9 103.088C368.988 101.525 370.202 100.053 371.53 98.6882C374.68 95.4482 377.26 93.2382 379.94 92.1582C383.4 90.7682 389.19 90.1582 392.8 91.1582C396.41 92.1582 399.65 95.0382 400.16 98.7282C402.16 97.0182 405.22 97.0382 407.69 98.0282H407.75C410.49 99.0282 412.05 101.908 412.86 104.708C413.67 107.508 414.02 110.508 415.5 113.018C415.81 113.538 416.18 114.168 415.91 114.718C415.785 114.917 415.602 115.074 415.386 115.167C415.17 115.259 414.931 115.284 414.7 115.238C414.237 115.139 413.8 114.941 413.42 114.658C413.73 115.398 414.03 116.128 414.34 116.858C413.339 117.032 412.311 116.967 411.34 116.668C410.836 119.164 410.185 121.629 409.39 124.048C408.367 123.927 407.334 124.18 406.48 124.758C405.48 125.628 405.09 127.258 403.48 126.638C402.67 126.318 401.93 124.638 401.65 123.788C399.842 118.25 399.245 112.387 399.9 106.598C398.763 105.387 397.405 104.403 395.9 103.698L396.02 103.808C393.12 102.808 389.84 101.808 387.09 103.168C384.96 104.228 383.71 106.438 382.09 108.168C380.624 109.813 378.839 111.142 376.843 112.075C374.847 113.009 372.682 113.527 370.48 113.598C370.33 116.518 370.57 120.648 370.42 123.598L367.96 118.918C367.767 118.594 367.59 118.26 367.43 117.918V117.818C367.184 117.247 366.907 116.689 366.6 116.148C366.26 116.422 365.833 116.565 365.396 116.551C364.959 116.537 364.542 116.367 364.22 116.073C363.897 115.778 363.691 115.377 363.638 114.944C363.585 114.51 363.688 114.072 363.93 113.708C364.177 113.369 364.473 113.068 364.81 112.818C364.453 113.166 364.012 113.414 363.53 113.539C363.047 113.663 362.541 113.66 362.06 113.528C361.584 113.383 361.169 113.085 360.88 112.68C360.591 112.275 360.443 111.786 360.46 111.288C360.502 110.954 360.63 110.636 360.831 110.366C361.033 110.096 361.301 109.883 361.61 109.748C360.323 109.851 359.034 109.566 357.91 108.928C357.11 108.498 356.39 107.808 356.66 106.888Z" fill="#263238"/>
<path d="M396.87 99.9382C397.232 100.242 397.566 100.576 397.87 100.938C398.692 101.926 399.24 103.112 399.46 104.378C399.642 105.246 399.732 106.131 399.73 107.018C399.73 108.018 399.66 109.018 399.58 110.078C399.486 111.209 399.462 112.344 399.51 113.478C399.538 114.083 399.615 114.685 399.74 115.278C399.833 115.91 400.084 116.509 400.47 117.018C400.652 117.22 400.883 117.371 401.14 117.457C401.398 117.543 401.674 117.561 401.94 117.508C402.447 117.415 402.909 117.155 403.25 116.768C403.816 115.995 404.161 115.082 404.25 114.128H404.04C404.35 114.913 404.774 115.648 405.3 116.308C405.803 116.915 406.518 117.308 407.3 117.408C407.668 117.445 408.038 117.379 408.37 117.218C408.68 117.056 408.934 116.806 409.1 116.498C409.25 116.215 409.326 115.899 409.32 115.578C409.304 115.28 409.184 114.997 408.98 114.778L408.87 114.878C409.489 115.585 410.248 116.153 411.1 116.548C411.4 116.682 411.63 116.772 411.79 116.818L412.04 116.878L411.81 116.778C411.65 116.708 411.42 116.618 411.14 116.478C410.315 116.06 409.581 115.482 408.98 114.778L408.87 114.878C409.04 115.096 409.138 115.361 409.151 115.637C409.164 115.913 409.09 116.186 408.94 116.418C408.792 116.689 408.566 116.909 408.29 117.048C407.979 117.198 407.632 117.253 407.29 117.208C406.56 117.124 405.888 116.767 405.41 116.208C404.907 115.559 404.5 114.842 404.2 114.078L404.05 113.748L403.98 114.108C403.873 115.021 403.528 115.89 402.98 116.628C402.667 116.968 402.253 117.199 401.8 117.288C401.574 117.334 401.34 117.32 401.121 117.249C400.902 117.177 400.705 117.049 400.55 116.878C400.19 116.402 399.959 115.84 399.88 115.248C399.757 114.668 399.677 114.08 399.64 113.488C399.593 112.361 399.616 111.232 399.71 110.108C399.77 109.028 399.84 108.008 399.83 107.038C399.824 106.14 399.723 105.245 399.53 104.368C399.287 103.078 398.703 101.877 397.84 100.888C397.573 100.519 397.245 100.197 396.87 99.9382Z" fill="#455A64"/>
<path d="M364.76 110.028L364.85 110.098C364.932 110.168 365.019 110.231 365.11 110.288C365.247 110.4 365.394 110.497 365.55 110.578C365.755 110.699 365.965 110.809 366.18 110.908C367.571 111.539 369.097 111.814 370.62 111.708C372.887 111.555 375.061 110.749 376.88 109.388C379.081 107.714 380.913 105.603 382.26 103.188C383.02 101.938 383.63 100.648 384.26 99.4581C384.906 98.2962 385.714 97.2322 386.66 96.2981C387.492 95.45 388.524 94.8242 389.66 94.4781C390.174 94.3357 390.707 94.275 391.24 94.2981C391.725 94.3348 392.202 94.4357 392.66 94.5981C393.468 94.8723 394.208 95.3155 394.83 95.8981C395.3 96.3377 395.696 96.8511 396 97.4181C396.242 97.9136 396.42 98.4378 396.53 98.9781C396.53 98.9781 396.53 98.9781 396.53 98.8681C396.53 98.7581 396.53 98.6781 396.48 98.5481C396.397 98.1427 396.263 97.7496 396.08 97.3781C395.38 96.0024 394.177 94.9494 392.72 94.4381C392.239 94.2707 391.738 94.1665 391.23 94.1281C390.678 94.1049 390.125 94.1656 389.59 94.3081C388.42 94.6535 387.357 95.29 386.5 96.1581C385.557 97.1025 384.759 98.1807 384.13 99.3581C383.44 100.558 382.82 101.838 382.08 103.088C380.741 105.471 378.935 107.56 376.77 109.228C374.989 110.578 372.858 111.386 370.63 111.558C369.13 111.676 367.624 111.429 366.24 110.838C365.731 110.599 365.236 110.329 364.76 110.028Z" fill="#455A64"/>
<path d="M363.82 105.468C363.82 105.468 363.94 105.578 364.19 105.728C364.543 105.942 364.91 106.129 365.29 106.288C365.856 106.529 366.442 106.719 367.04 106.858C367.772 107.03 368.519 107.131 369.27 107.158C370.023 107.177 370.776 107.126 371.52 107.008C372.123 106.907 372.715 106.753 373.29 106.548C373.682 106.414 374.063 106.25 374.43 106.058C374.568 105.996 374.699 105.919 374.82 105.828C374.82 105.828 374.23 106.078 373.24 106.388C372.663 106.56 372.075 106.694 371.48 106.788C370.752 106.89 370.016 106.933 369.28 106.918C368.544 106.886 367.812 106.795 367.09 106.648C366.501 106.519 365.923 106.345 365.36 106.128C364.4 105.758 363.84 105.428 363.82 105.468Z" fill="#455A64"/>
<path d="M372.31 120.458C372.51 120.668 373.71 119.698 375.45 119.658C377.19 119.618 378.45 120.458 378.67 120.238C378.89 120.018 378.54 119.748 377.98 119.358C377.215 118.847 376.31 118.589 375.39 118.618C374.484 118.646 373.611 118.965 372.9 119.528C372.37 119.968 372.2 120.358 372.31 120.458Z" fill="#263238"/>
<path d="M374.08 125.368C374.103 125.733 374.268 126.075 374.538 126.321C374.809 126.568 375.164 126.699 375.53 126.688C375.71 126.69 375.888 126.655 376.055 126.586C376.221 126.518 376.372 126.417 376.498 126.289C376.625 126.162 376.725 126.01 376.792 125.843C376.86 125.677 376.893 125.498 376.89 125.318C376.865 124.952 376.698 124.61 376.426 124.364C376.154 124.118 375.797 123.987 375.43 123.998C375.251 123.998 375.074 124.034 374.909 124.103C374.744 124.172 374.594 124.273 374.468 124.401C374.343 124.528 374.244 124.679 374.177 124.845C374.111 125.012 374.078 125.189 374.08 125.368Z" fill="#263238"/>
<path d="M404.21 124.518C404.38 124.428 411.21 121.888 411.48 128.998C411.75 136.108 404.57 134.928 404.55 134.728C404.53 134.528 404.21 124.518 404.21 124.518Z" fill="#FFBF9D"/>
<path d="M406.66 131.948C406.66 131.948 406.79 132.028 407 132.118C407.299 132.234 407.631 132.234 407.93 132.118C408.377 131.808 408.733 131.384 408.962 130.89C409.19 130.396 409.283 129.85 409.23 129.308C409.23 128.698 409.089 128.096 408.82 127.548C408.742 127.325 408.61 127.125 408.435 126.967C408.261 126.808 408.049 126.695 407.82 126.638C407.677 126.61 407.529 126.631 407.4 126.698C407.271 126.766 407.169 126.875 407.11 127.008C407.02 127.208 407.11 127.348 407.03 127.368C406.95 127.388 406.88 127.258 406.92 126.958C406.957 126.782 407.048 126.621 407.18 126.498C407.373 126.347 407.615 126.272 407.86 126.288C408.154 126.336 408.431 126.457 408.666 126.64C408.9 126.824 409.084 127.064 409.2 127.338C409.535 127.952 409.71 128.639 409.71 129.338C409.71 130.768 409.05 132.138 408.03 132.478C407.842 132.542 407.642 132.562 407.444 132.538C407.247 132.513 407.058 132.445 406.89 132.338C406.66 132.118 406.59 131.958 406.66 131.948Z" fill="#FF9A6C"/>
<path d="M388.86 134.018C388.92 134.018 388.92 134.438 388.68 135.018C388.332 135.799 387.761 136.459 387.04 136.918C386.339 137.391 385.505 137.629 384.66 137.598C384.01 137.538 383.66 137.318 383.66 137.268C383.66 137.218 384.06 137.268 384.66 137.268C385.423 137.212 386.159 136.964 386.8 136.548C387.447 136.133 387.991 135.575 388.39 134.918C388.66 134.368 388.78 133.998 388.86 134.018Z" fill="#263238"/>
<path d="M424.66 415.188L426.78 439.188L434.3 457.748C434.424 458.071 434.477 458.417 434.456 458.763C434.436 459.108 434.342 459.445 434.181 459.752C434.02 460.058 433.796 460.327 433.524 460.54C433.251 460.753 432.936 460.906 432.6 460.988C432.202 461.107 431.783 461.132 431.374 461.063C430.964 460.994 430.577 460.831 430.24 460.588C425.95 457.468 410.48 445.988 410.31 444.498C410.09 442.558 406.14 418.928 406.14 418.928L424.66 415.188Z" fill="#455A64"/>
<path d="M432.66 461.018L409.94 441.788L410.17 443.568C410.32 444.568 410.34 445.068 411.02 445.678C417.058 451.147 423.402 456.269 430.02 461.018C430.427 461.208 430.871 461.307 431.32 461.307C431.77 461.307 432.213 461.208 432.62 461.018H432.66Z" fill="#263238"/>
<path d="M414.36 434.288C414.693 434.46 414.947 434.753 415.069 435.106C415.192 435.46 415.175 435.847 415.02 436.188C414.82 436.518 414.507 436.764 414.139 436.88C413.771 436.995 413.373 436.974 413.02 436.818C412.673 436.634 412.41 436.325 412.283 435.953C412.157 435.581 412.177 435.175 412.34 434.818C412.582 434.494 412.936 434.27 413.333 434.191C413.73 434.112 414.142 434.182 414.49 434.388" fill="white"/>
<path d="M425.6 451.118C425.75 451.178 426.18 449.858 427.6 449.038C428.502 448.598 429.473 448.317 430.47 448.208C430.47 448.148 430.14 447.998 429.54 447.978C428.749 447.971 427.97 448.182 427.29 448.588C426.628 448.972 426.092 449.542 425.75 450.228C425.53 450.748 425.53 451.108 425.6 451.118Z" fill="#263238"/>
<path d="M427.78 454.148C427.91 454.248 428.64 453.378 429.92 452.898C430.728 452.664 431.55 452.481 432.38 452.348C431.96 452.156 431.501 452.061 431.038 452.072C430.576 452.082 430.122 452.197 429.71 452.408C428.25 452.968 427.66 454.098 427.78 454.148Z" fill="#263238"/>
<path d="M421.751 447.348C422.752 446.553 423.812 445.835 424.921 445.198C426.12 444.708 427.353 444.303 428.611 443.988C427.248 443.783 425.856 444.044 424.661 444.728C422.601 445.718 421.661 447.288 421.751 447.348Z" fill="#263238"/>
<path d="M420.46 440.088C420.54 440.228 421.89 439.528 423.71 439.288C425.53 439.048 427.04 439.288 427.08 439.158C426.007 438.643 424.793 438.503 423.63 438.758C422.453 438.829 421.335 439.298 420.46 440.088Z" fill="#263238"/>
<path d="M419.661 433.048C420.713 432.52 421.86 432.207 423.034 432.128C424.209 432.049 425.387 432.206 426.501 432.588C426.501 432.528 426.231 432.258 425.601 431.998C424.771 431.673 423.879 431.536 422.991 431.598C422.104 431.648 421.241 431.905 420.471 432.348C419.871 432.688 419.601 432.998 419.661 433.048Z" fill="#263238"/>
<path d="M422.81 430.788C422.81 430.788 422.87 430.458 422.75 429.878C422.574 429.052 422.234 428.27 421.75 427.578C421.421 427.031 420.922 426.607 420.33 426.368C420.125 426.307 419.906 426.306 419.7 426.366C419.494 426.427 419.31 426.545 419.17 426.708C419.051 426.869 418.965 427.051 418.917 427.245C418.869 427.439 418.86 427.641 418.89 427.838C419.064 428.662 419.517 429.4 420.173 429.927C420.83 430.454 421.648 430.737 422.49 430.728C423.331 430.741 424.157 430.509 424.867 430.06C425.578 429.61 426.142 428.963 426.49 428.198C426.569 428.011 426.605 427.809 426.595 427.606C426.584 427.404 426.528 427.206 426.43 427.028C426.302 426.855 426.125 426.723 425.922 426.65C425.719 426.577 425.499 426.566 425.29 426.618C424.685 426.814 424.138 427.157 423.7 427.618C423.078 428.191 422.56 428.868 422.17 429.618C422.009 429.883 421.906 430.18 421.87 430.488C422.441 429.513 423.152 428.627 423.98 427.858C424.373 427.471 424.853 427.182 425.38 427.018C425.494 426.986 425.614 426.99 425.725 427.03C425.836 427.069 425.932 427.142 426 427.238C426.055 427.359 426.084 427.49 426.084 427.623C426.084 427.756 426.055 427.887 426 428.008C425.682 428.657 425.188 429.203 424.575 429.585C423.961 429.967 423.253 430.169 422.53 430.168C421.817 430.171 421.123 429.934 420.561 429.495C419.999 429.056 419.601 428.441 419.43 427.748C419.382 427.474 419.439 427.192 419.59 426.958C419.665 426.866 419.766 426.798 419.881 426.764C419.995 426.73 420.117 426.732 420.23 426.768C420.732 426.97 421.16 427.318 421.46 427.768C422.093 428.683 422.551 429.707 422.81 430.788Z" fill="#263238"/>
<path d="M364.12 416.428L365.06 436.778C365.06 436.778 343.37 444.518 343.16 448.298L385.21 447.988L385.12 416.218L364.12 416.428Z" fill="#455A64"/>
<path d="M378.051 434.968C378.446 435.066 378.79 435.31 379.013 435.652C379.236 435.993 379.321 436.407 379.251 436.808C379.13 437.202 378.865 437.537 378.51 437.746C378.155 437.955 377.734 438.024 377.331 437.938C376.913 437.836 376.551 437.578 376.317 437.218C376.083 436.857 375.995 436.421 376.071 435.998C376.236 435.593 376.548 435.265 376.945 435.079C377.342 434.894 377.793 434.865 378.211 434.998" fill="#E0E0E0"/>
<path d="M385.21 447.988L385.07 444.788L344.8 446.278C344.8 446.278 342.94 447.058 343.16 448.278L385.21 447.988Z" fill="#263238"/>
<path d="M364.38 436.598C364.38 436.788 365.38 436.868 366.38 437.478C367.38 438.088 367.94 438.898 368.13 438.818C368.32 438.738 368 437.628 366.76 436.908C365.52 436.188 364.33 436.408 364.38 436.598Z" fill="#263238"/>
<path d="M359.98 438.328C359.98 438.518 360.83 438.838 361.53 439.648C362.23 440.458 362.45 441.328 362.65 441.318C362.85 441.308 362.98 440.208 362.08 439.218C361.18 438.228 359.99 438.148 359.98 438.328Z" fill="#263238"/>
<path d="M357.52 443.308C357.71 443.308 357.98 442.388 357.45 441.308C356.92 440.228 355.95 439.848 355.86 440.008C355.77 440.168 356.38 440.728 356.8 441.598C357.22 442.468 357.32 443.298 357.52 443.308Z" fill="#263238"/>
<path d="M364.71 431.918C364.8 432.098 365.71 431.828 366.9 431.918C368.09 432.008 368.97 432.318 369.07 432.158C369.17 431.998 368.31 431.308 366.94 431.248C365.57 431.188 364.66 431.768 364.71 431.918Z" fill="#263238"/>
<path d="M356.8 270.278C356.8 271.448 361.68 434.128 361.68 434.128H387.68L392.95 294.968C392.95 294.968 399.1 367.728 399.1 369.298C399.1 370.868 404.52 434.908 404.52 434.908L428.62 433.058L427.03 286.598L424.09 265.118L356.8 270.278Z" fill="#263238"/>
<path d="M395.66 289.818C395.331 290.005 394.977 290.146 394.61 290.238C393.92 290.478 392.91 290.808 391.67 291.238L391.44 291.308V291.078C391.3 289.128 391.13 286.508 390.98 283.638C390.81 280.528 390.69 277.718 390.63 275.638C390.63 274.638 390.58 273.788 390.58 273.218C390.55 272.92 390.571 272.619 390.64 272.328C390.724 272.614 390.771 272.91 390.78 273.208C390.85 273.778 390.92 274.608 390.99 275.618C391.15 277.618 391.33 280.468 391.49 283.618C391.65 286.488 391.76 289.108 391.82 291.068L391.57 290.908C392.83 290.558 393.85 290.278 394.57 290.098C394.923 289.97 395.289 289.876 395.66 289.818Z" fill="#455A64"/>
<path d="M393.66 272.908C393.66 272.908 393.74 272.778 394.01 272.688C394.39 272.588 394.794 272.623 395.15 272.788C395.419 272.887 395.649 273.069 395.806 273.309C395.963 273.549 396.038 273.832 396.02 274.118C395.987 274.48 395.836 274.82 395.59 275.087C395.344 275.355 395.018 275.534 394.66 275.598C394.297 275.653 393.925 275.606 393.587 275.463C393.248 275.32 392.955 275.087 392.74 274.788C392.59 274.558 392.51 274.288 392.51 274.013C392.51 273.738 392.59 273.469 392.74 273.238C392.947 272.928 393.249 272.693 393.6 272.568C393.86 272.478 394.01 272.498 394.02 272.518C394.03 272.538 393.43 272.708 393.07 273.388C392.965 273.569 392.914 273.778 392.925 273.987C392.935 274.197 393.007 274.399 393.13 274.568C393.292 274.782 393.508 274.949 393.756 275.051C394.004 275.153 394.275 275.186 394.54 275.148C394.788 275.101 395.016 274.98 395.194 274.802C395.372 274.623 395.493 274.396 395.54 274.148C395.56 273.943 395.516 273.737 395.414 273.558C395.312 273.379 395.157 273.236 394.97 273.148C394.57 272.931 394.111 272.847 393.66 272.908Z" fill="#455A64"/>
<path d="M405.6 274.598C405.46 274.598 405.26 273.898 405.16 273.018C405.06 272.138 405.09 271.408 405.23 271.398C405.37 271.388 405.57 272.088 405.67 272.968C405.77 273.848 405.74 274.598 405.6 274.598Z" fill="#455A64"/>
<path d="M407.4 274.408C407.26 274.408 407.14 273.658 407.14 272.728C407.14 271.798 407.24 271.048 407.39 271.048C407.54 271.048 407.65 271.798 407.65 272.728C407.65 273.658 407.55 274.408 407.4 274.408Z" fill="#455A64"/>
<path d="M376.07 275.528C375.93 275.528 375.71 274.698 375.58 273.648C375.45 272.598 375.46 271.718 375.58 271.708C375.7 271.698 375.94 272.538 376.07 273.598C376.2 274.658 376.21 275.518 376.07 275.528Z" fill="#455A64"/>
<path d="M378.26 275.688C377.798 275.128 377.569 274.412 377.62 273.688C377.512 272.989 377.673 272.274 378.07 271.688C378.22 271.688 378.07 272.608 378.14 273.688C378.21 274.768 378.4 275.648 378.26 275.688Z" fill="#455A64"/>
<path d="M370.041 273.518C370.051 273.758 370.021 273.998 369.951 274.228C369.825 274.877 369.651 275.515 369.431 276.138C368.689 278.238 367.601 280.198 366.211 281.938C364.767 283.732 363.053 285.291 361.131 286.558C360.539 286.948 359.925 287.302 359.291 287.618C359.059 287.748 358.815 287.852 358.561 287.928C358.561 287.868 359.501 287.348 360.931 286.318C362.77 285.013 364.419 283.458 365.831 281.698C367.193 279.983 368.301 278.08 369.121 276.048C369.731 274.498 369.961 273.498 370.041 273.518Z" fill="#455A64"/>
<path d="M426.24 284.478C425.984 284.554 425.718 284.595 425.45 284.598C424.725 284.656 423.996 284.656 423.27 284.598C420.896 284.37 418.612 283.574 416.61 282.278C414.714 281.036 413.185 279.31 412.18 277.278C411.888 276.687 411.661 276.067 411.5 275.428C411.419 275.204 411.382 274.966 411.39 274.728C411.47 274.728 411.69 275.728 412.48 277.158C413.535 279.092 415.05 280.737 416.89 281.948C418.83 283.2 421.022 284.006 423.31 284.308C425.1 284.508 426.23 284.398 426.24 284.478Z" fill="#455A64"/>
<path d="M383.89 366.858C383.89 366.968 379.55 366.028 374.27 364.778C368.99 363.528 364.73 362.408 364.77 362.298C364.81 362.188 369.11 363.118 374.39 364.378C379.67 365.638 383.92 366.748 383.89 366.858Z" fill="#455A64"/>
<path d="M425.77 360.938C425.83 361.038 422.08 362.988 417.4 365.308C412.72 367.628 408.861 369.418 408.801 369.308C408.741 369.198 412.491 367.248 417.171 364.938C421.851 362.628 425.71 360.838 425.77 360.938Z" fill="#455A64"/>
<path d="M344.18 215.188L347.73 219.638V211.988H358.93C358.93 211.988 360.17 229.498 359.93 233.228C359.665 235.172 359.206 237.085 358.56 238.938C358.226 240.017 357.619 240.991 356.799 241.766C355.978 242.542 354.972 243.093 353.876 243.366C352.781 243.64 351.633 243.626 350.544 243.327C349.456 243.028 348.462 242.453 347.66 241.658C346.407 240.439 345.238 239.136 344.16 237.758C339.16 231.358 330.92 215.758 330.92 215.758L339.56 210.598L344.18 215.188Z" fill="#FFBF9D"/>
<path d="M343.47 214.368C343.893 215.079 344.382 215.749 344.93 216.368C345.93 217.538 347.19 219.148 348.68 220.888C350.17 222.628 351.59 224.168 352.68 225.218C353.233 225.824 353.873 226.343 354.58 226.758C354.073 226.123 353.525 225.522 352.94 224.958C351.94 223.858 350.56 222.288 349.07 220.548C346.12 217.008 343.6 214.248 343.47 214.368Z" fill="#FF9A6C"/>
<path d="M369.72 161.398L381.53 156.758L403.28 155.528L413.5 159.418L399.49 167.198L387.41 166.758L369.72 161.398Z" fill="#FFBF9D"/>
<path d="M355.79 272.498C356.86 272.678 428.12 275.708 428.12 275.708L425.66 211.598L425.45 199.018L421.45 160.908C421.45 160.908 410.79 157.238 405.36 155.488C405.36 155.488 399.64 161.488 388.76 161.288C378.13 161.138 375.91 158.738 375.91 158.738L361.05 164.438C361.05 164.438 350.48 168.228 348.66 172.908C346.84 177.588 343.66 203.458 343.66 203.458H359.07L358.66 249.428L355.79 272.498Z" fill="#455A64"/>
<g opacity="0.2">
<path d="M400.601 186.978L402.811 203.138L413.501 207.908L421.401 201.178V186.178L400.601 186.978Z" fill="black"/>
</g>
<path d="M421.121 191.598C421.121 191.728 416.681 191.838 411.201 191.838C405.721 191.838 401.271 191.728 401.271 191.598C404.574 191.347 407.888 191.264 411.201 191.348C414.509 191.264 417.82 191.347 421.121 191.598Z" fill="#263238"/>
<path d="M350.99 179.598C351.041 179.738 351.081 179.882 351.11 180.028C351.18 180.348 351.27 180.748 351.39 181.258C351.774 182.801 352.248 184.321 352.81 185.808C353.52 187.718 354.52 189.968 355.75 192.488C356.98 195.008 357.96 198.018 359.05 201.218C359.05 205.058 359.05 209.218 358.97 213.648C358.87 223.448 358.77 232.318 358.71 238.788C358.65 241.968 358.61 244.558 358.57 246.408C358.57 247.268 358.55 247.958 358.51 248.478C358.515 248.719 358.498 248.96 358.46 249.198C358.443 248.955 358.443 248.711 358.46 248.468C358.46 247.961 358.46 247.271 358.46 246.398C358.46 244.558 358.46 241.958 358.46 238.778C358.46 232.308 358.54 223.438 358.59 213.648C358.59 209.258 358.67 205.058 358.7 201.218V201.288C357.63 198.088 356.6 195.118 355.48 192.568C354.411 190.373 353.456 188.123 352.62 185.828C352.08 184.326 351.642 182.789 351.31 181.228C351.21 180.678 351.13 180.228 351.09 179.968C351.046 179.848 351.012 179.724 350.99 179.598Z" fill="#263238"/>
<path d="M426.54 172.118C426.575 172.574 426.575 173.032 426.54 173.488C426.54 174.488 426.46 175.708 426.4 177.208C426.27 180.428 426.1 184.728 425.91 189.478C425.72 194.228 425.5 198.538 425.36 201.758C425.27 203.258 425.2 204.508 425.14 205.478C425.138 205.935 425.091 206.39 425 206.838C424.964 206.382 424.964 205.924 425 205.468C425 204.468 425 203.248 425.07 201.748C425.15 198.598 425.29 194.258 425.49 189.468C425.69 184.678 425.91 180.328 426.11 177.198C426.21 175.628 426.31 174.358 426.4 173.478C426.407 173.022 426.454 172.567 426.54 172.118Z" fill="#263238"/>
<g opacity="0.3">
<path d="M351.03 181.948C350.759 188.985 353.274 195.845 358.03 201.038C356.58 194.428 352.96 188.278 351.03 181.948Z" fill="black"/>
</g>
<g opacity="0.3">
<path d="M382.331 245.378C385.681 244.932 388.736 243.231 390.881 240.618C393.136 238.099 395.068 235.307 396.631 232.308C398.647 228.229 399.791 223.774 399.991 219.228C395.841 230.358 389.761 239.158 382.331 245.378Z" fill="black"/>
</g>
<path d="M401.31 214.378C401.304 214.516 401.283 214.654 401.25 214.788C401.18 215.108 401.09 215.488 400.99 215.948C400.89 216.408 400.73 217.058 400.51 217.758C400.29 218.458 400.08 219.258 399.76 220.128C399.06 222.175 398.238 224.179 397.3 226.128C395.006 230.901 392.061 235.333 388.55 239.298C387.117 240.916 385.58 242.439 383.95 243.858C383.28 244.488 382.61 244.988 382.04 245.448C381.47 245.908 380.97 246.278 380.54 246.568L379.54 247.238C379.31 247.378 379.19 247.458 379.18 247.438C379.268 247.333 379.369 247.239 379.48 247.158L380.41 246.418C380.82 246.118 381.31 245.728 381.86 245.248C382.41 244.768 383.06 244.248 383.72 243.618C385.3 242.168 386.798 240.632 388.21 239.018C389.92 237.026 391.513 234.936 392.98 232.758C394.414 230.564 395.723 228.29 396.9 225.948C397.846 224.024 398.691 222.051 399.43 220.038C399.77 219.188 400.01 218.388 400.24 217.698C400.47 217.008 400.66 216.408 400.8 215.918C400.94 215.428 401.04 215.098 401.14 214.788C401.24 214.478 401.29 214.368 401.31 214.378Z" fill="#263238"/>
<path d="M399.25 194.318C399.235 194.54 399.205 194.76 399.16 194.978C399.08 195.448 398.97 196.068 398.84 196.838C398.71 197.608 398.51 198.628 398.22 199.758C397.93 200.888 397.67 202.198 397.22 203.598C397.02 204.298 396.8 205.038 396.57 205.808C396.34 206.578 396.04 207.358 395.76 208.168C395.23 209.818 394.51 211.518 393.76 213.318C390.475 221.087 386.061 228.329 380.66 234.808C379.39 236.268 378.2 237.688 376.98 238.908C376.38 239.528 375.82 240.148 375.24 240.698C374.66 241.248 374.11 241.788 373.57 242.288C372.57 243.288 371.49 244.158 370.57 244.918C369.65 245.678 368.91 246.308 368.25 246.798L366.74 247.938C366.575 248.082 366.394 248.207 366.2 248.308C366.346 248.147 366.507 247.999 366.68 247.868L368.13 246.658C368.77 246.148 369.55 245.518 370.4 244.728C371.25 243.938 372.28 243.098 373.31 242.048L374.95 240.448C375.52 239.888 376.07 239.268 376.66 238.648C377.87 237.418 379.04 235.998 380.3 234.528C385.654 228.06 390.059 220.86 393.38 213.148C394.12 211.358 394.84 209.678 395.38 208.048C395.67 207.228 395.97 206.458 396.21 205.698C396.45 204.938 396.67 204.208 396.89 203.508C397.35 202.118 397.64 200.828 397.95 199.698C398.26 198.568 398.48 197.598 398.64 196.798C398.8 195.998 398.95 195.428 399.05 194.958C399.094 194.738 399.161 194.524 399.25 194.318Z" fill="#263238"/>
<path d="M342.94 174.388L370.38 216.108C370.512 216.305 370.583 216.536 370.586 216.773C370.59 217.009 370.524 217.242 370.399 217.442C370.273 217.643 370.092 217.803 369.878 217.903C369.664 218.004 369.425 218.04 369.19 218.008L337.59 214.008C337.424 213.985 337.264 213.929 337.12 213.843C336.976 213.757 336.85 213.643 336.75 213.508L306.57 172.288C306.421 172.098 306.331 171.867 306.31 171.626C306.29 171.384 306.341 171.142 306.457 170.93C306.573 170.717 306.749 170.543 306.963 170.429C307.177 170.315 307.419 170.266 307.66 170.288L340.17 172.688C340.732 172.739 341.274 172.919 341.755 173.214C342.235 173.509 342.641 173.911 342.94 174.388Z" fill="#E0E0E0"/>
<path d="M342.94 174.388C342.872 174.252 342.788 174.125 342.69 174.008C342.412 173.663 342.073 173.372 341.69 173.148C341.039 172.808 340.315 172.633 339.58 172.638L336.66 172.398L317.92 170.928L311.71 170.448L308.41 170.198C308.12 170.198 307.87 170.198 307.54 170.198C307.203 170.209 306.88 170.341 306.63 170.568C306.377 170.8 306.213 171.114 306.169 171.454C306.125 171.795 306.204 172.14 306.39 172.428L315.17 184.478C321.37 192.948 328.17 202.258 335.32 212.038C335.78 212.648 336.19 213.238 336.69 213.878C336.844 214.048 337.036 214.178 337.25 214.258C337.447 214.327 337.652 214.368 337.86 214.378L338.98 214.518L343.4 215.078L352.04 216.158L368.38 218.158C368.72 218.158 369 218.248 369.38 218.268C369.575 218.27 369.768 218.232 369.948 218.159C370.129 218.085 370.293 217.976 370.43 217.838C370.692 217.569 370.845 217.213 370.86 216.838C370.845 216.472 370.712 216.122 370.48 215.838L368.36 212.598L364.36 206.598L357.2 195.768C352.82 189.178 349.28 183.828 346.81 180.118L343.96 175.868C343.64 175.408 343.39 175.038 343.2 174.778C343.12 174.648 343.03 174.524 342.93 174.408C342.999 174.546 343.076 174.68 343.16 174.808L343.87 175.928C344.51 176.928 345.44 178.378 346.63 180.228L356.89 195.978L364 206.838L368 212.888L370.08 216.058C370.26 216.268 370.365 216.532 370.38 216.808C370.37 217.071 370.264 217.32 370.08 217.508C369.894 217.693 369.643 217.797 369.38 217.798C369.11 217.798 368.74 217.718 368.43 217.688L352.06 215.598L343.42 214.508L339 213.948L337.89 213.808C337.724 213.794 337.56 213.764 337.4 213.718C337.26 213.664 337.133 213.578 337.03 213.468C336.59 212.868 336.15 212.278 335.71 211.668C328.55 201.908 321.71 192.608 315.53 184.138C312.42 179.918 309.48 175.898 306.72 172.138C306.617 171.99 306.556 171.816 306.544 171.636C306.532 171.455 306.569 171.275 306.651 171.114C306.733 170.953 306.857 170.817 307.01 170.721C307.163 170.625 307.34 170.572 307.52 170.568C307.75 170.568 308.07 170.568 308.34 170.618L311.64 170.858L317.86 171.298L336.66 172.598L339.6 172.798C340.317 172.774 341.028 172.929 341.67 173.248C342.171 173.532 342.604 173.921 342.94 174.388Z" fill="#263238"/>
<path d="M306.57 172.318C306.786 172.374 307.007 172.407 307.23 172.418L309.15 172.618L316.29 173.248L340.57 175.248L340.38 175.138C341.9 177.398 343.47 179.738 345.04 182.138C351.45 191.988 357.04 201.048 361.27 207.488C363.37 210.718 365.12 213.298 366.34 215.078L367.76 217.078C367.914 217.322 368.091 217.55 368.29 217.758C368.159 217.503 368.012 217.256 367.85 217.018L366.51 214.928L361.58 207.258C357.44 200.768 351.89 191.688 345.48 181.828C343.91 179.398 342.33 177.058 340.8 174.828L340.73 174.728H340.66L316.37 172.928L309.22 172.448L307.29 172.338C307.051 172.314 306.81 172.307 306.57 172.318Z" fill="#263238"/>
<path d="M325.38 178.688C325.399 178.605 325.434 178.527 325.484 178.458C325.534 178.389 325.597 178.33 325.67 178.286C325.743 178.243 325.824 178.214 325.908 178.202C325.993 178.19 326.078 178.196 326.16 178.218C326.482 178.291 326.777 178.454 327.01 178.688C327.159 178.824 327.255 179.007 327.283 179.206C327.31 179.405 327.267 179.608 327.16 179.778C326.85 180.168 326.16 180.018 325.82 179.698C325.667 179.581 325.546 179.427 325.469 179.25C325.392 179.074 325.362 178.88 325.38 178.688Z" fill="white"/>
<path d="M340.14 202.068C340.14 202.068 341.38 199.068 338.22 198.708C334.399 198.51 330.571 198.51 326.75 198.708C326.75 198.708 322.2 199.188 323.16 202.448C323.16 202.448 320.48 204.848 321.92 207.448C323.36 210.048 323.92 209.268 323.92 209.268C323.92 209.268 323.54 212.438 325.92 212.908C325.92 212.908 328.52 215.978 330.92 215.788C333.32 215.598 343.47 210.708 344.14 209.788C344.81 208.868 345.77 208.288 345.2 207.218C345.2 207.218 346.44 204.408 343.76 203.978C343.78 203.928 343.59 201.598 340.14 202.068Z" fill="#FFBF9D"/>
<path d="M325.72 203.138C326.423 203.285 327.143 203.339 327.86 203.298C329.18 203.298 331 203.298 333.01 203.298C334.742 203.349 336.476 203.248 338.19 202.998C339.55 202.678 340.09 201.878 340.03 201.858C339.443 202.23 338.792 202.491 338.11 202.628C336.86 202.838 335.01 202.708 333 202.778C330.99 202.848 329.17 202.868 327.85 202.928C327.134 202.913 326.419 202.983 325.72 203.138Z" fill="#FF9A6C"/>
<path d="M327.98 207.938C328.192 208.062 328.427 208.14 328.67 208.168C329.328 208.302 330.001 208.346 330.67 208.298C331.647 208.224 332.612 208.046 333.55 207.768C334.61 207.478 335.74 207.068 336.93 206.708C338.036 206.342 339.18 206.104 340.34 205.998C341.343 206.091 342.351 205.89 343.24 205.418C343.588 205.183 343.834 204.826 343.93 204.418C343.995 204.113 343.952 203.796 343.81 203.518C343.56 203.068 343.22 203.038 343.23 203.058C343.24 203.078 343.47 203.198 343.62 203.608C343.716 203.886 343.71 204.189 343.601 204.462C343.493 204.736 343.291 204.961 343.03 205.098C342.176 205.474 341.237 205.616 340.31 205.508C339.11 205.583 337.923 205.811 336.78 206.188L333.42 207.298C332.512 207.58 331.583 207.788 330.64 207.918C329.755 207.978 328.867 207.985 327.98 207.938Z" fill="#FF9A6C"/>
<path d="M331.38 211.988C332.109 211.946 332.828 211.809 333.52 211.578C334.82 211.248 336.6 210.738 338.52 210.108C340.44 209.478 342.2 208.828 343.44 208.318C344.145 208.097 344.817 207.784 345.44 207.388C345.38 207.248 342.26 208.388 338.44 209.598C334.62 210.808 331.34 211.848 331.38 211.988Z" fill="#FF9A6C"/>
<path d="M330.57 215.748C331.168 215.801 331.77 215.733 332.34 215.548C333.735 215.209 335.092 214.73 336.39 214.118C337.91 213.428 339.24 212.718 340.2 212.208C340.749 211.976 341.261 211.667 341.72 211.288C339.805 211.907 337.948 212.693 336.17 213.638C333.18 215.078 330.55 215.598 330.57 215.748Z" fill="#FF9A6C"/>
<path d="M431.59 187.158C431.59 187.158 425.13 213.038 417.06 222.598C409.24 231.858 396.99 227.598 392.75 215.598C388.51 203.598 380.95 176.288 380.95 176.288L390.23 169.188L406.23 200.278L413.46 179.088L431.59 187.158Z" fill="#FFBF9D"/>
<path d="M381.38 177.028L374.57 167.158C373.579 166.944 372.609 166.643 371.67 166.258C370.9 165.808 370.14 161.888 370.16 161.128C370.18 160.368 368.84 158.578 369.38 158.068C369.92 157.558 371.74 157.528 371.64 156.798C371.64 156.638 370.29 154.998 371.35 153.798C371.935 153.412 372.586 153.137 373.27 152.988L373.16 149.218C373.16 149.218 375.16 144.778 377.27 146.388C377.27 146.388 385.1 152.388 385.89 153.388C386.68 154.388 389.7 166.878 390.23 169.228" fill="#FFBF9D"/>
<path d="M390.23 169.208C390.22 168.985 390.186 168.764 390.13 168.548C390.02 168.068 389.89 167.448 389.72 166.668C389.36 165.028 388.81 162.668 388.07 159.758C387.69 158.298 387.28 156.758 386.75 155.008C386.62 154.588 386.48 154.158 386.3 153.718C386.094 153.27 385.777 152.881 385.38 152.588C384.66 151.958 383.91 151.338 383.14 150.708C381.59 149.458 379.94 148.158 378.23 146.828C377.799 146.444 377.314 146.124 376.79 145.878C376.485 145.805 376.166 145.805 375.86 145.878C375.554 145.951 375.27 146.095 375.03 146.298C374.137 147.075 373.424 148.038 372.94 149.118V149.178C372.94 149.548 372.94 149.938 372.94 150.328C372.94 151.208 372.94 152.088 373.02 152.948L373.2 152.708C372.728 152.822 372.266 152.976 371.82 153.168C371.571 153.272 371.344 153.421 371.15 153.608C370.978 153.81 370.848 154.045 370.77 154.298C370.643 154.798 370.685 155.325 370.89 155.798C370.973 156.024 371.077 156.242 371.2 156.448L371.37 156.738V156.808C371.375 156.831 371.375 156.855 371.37 156.878C371.37 156.958 371.17 157.078 370.98 157.148C370.79 157.218 370.58 157.288 370.37 157.358C370.153 157.416 369.94 157.486 369.73 157.568C369.468 157.644 369.239 157.806 369.08 158.028C368.976 158.285 368.976 158.572 369.08 158.828C369.14 159.044 369.217 159.254 369.31 159.458C369.48 159.858 369.67 160.238 369.81 160.608C369.881 160.776 369.922 160.956 369.93 161.138C369.934 161.353 369.955 161.567 369.99 161.778C370.05 162.188 370.12 162.588 370.21 162.988C370.366 163.759 370.576 164.517 370.84 165.258C370.967 165.645 371.171 166.003 371.44 166.308C371.767 166.519 372.125 166.678 372.5 166.778C373.19 166.988 373.87 167.158 374.5 167.308L374.39 167.238L379.39 174.398L380.79 176.338C380.945 176.572 381.119 176.793 381.31 176.998C381.182 176.749 381.039 176.509 380.88 176.278L379.56 174.278C378.37 172.508 376.7 170.038 374.65 167.018V166.958H374.66C374.02 166.798 373.35 166.618 372.66 166.408C372.34 166.317 372.034 166.182 371.75 166.008C371.535 165.745 371.372 165.443 371.27 165.118C371.015 164.394 370.815 163.652 370.67 162.898C370.59 162.508 370.52 162.118 370.46 161.718C370.46 161.528 370.46 161.318 370.46 161.138C370.451 160.905 370.404 160.676 370.32 160.458C370.17 160.048 369.98 159.668 369.82 159.278C369.733 159.095 369.663 158.904 369.61 158.708C369.556 158.56 369.556 158.397 369.61 158.248C369.725 158.128 369.87 158.042 370.03 157.998C370.23 157.92 370.433 157.853 370.64 157.798C370.85 157.728 371.07 157.668 371.29 157.578C371.565 157.493 371.795 157.302 371.93 157.048C371.967 156.967 371.984 156.878 371.98 156.788C371.978 156.725 371.961 156.664 371.93 156.608V156.528L371.76 156.238C371.653 156.048 371.559 155.851 371.48 155.648C371.319 155.273 371.284 154.855 371.38 154.458C371.433 154.266 371.529 154.088 371.66 153.938C371.811 153.806 371.984 153.701 372.17 153.628C372.591 153.447 373.026 153.3 373.47 153.188L373.65 153.138V152.948C373.65 152.088 373.6 151.218 373.57 150.338C373.57 149.948 373.57 149.548 373.57 149.188V149.298C374.015 148.289 374.673 147.388 375.5 146.658C375.678 146.494 375.893 146.377 376.126 146.315C376.36 146.254 376.605 146.252 376.84 146.308C377.306 146.537 377.74 146.826 378.13 147.168C379.85 148.498 381.5 149.788 383.05 151.028C383.83 151.648 384.58 152.258 385.29 152.868C385.65 153.123 385.936 153.468 386.12 153.868C386.29 154.278 386.43 154.708 386.57 155.118C387.1 156.798 387.57 158.388 387.93 159.828C388.68 162.698 389.3 165.028 389.73 166.698C389.94 167.468 390.1 168.088 390.22 168.558C390.201 168.775 390.205 168.992 390.23 169.208Z" fill="#FF9A6C"/>
<path d="M373.271 152.988C373.271 153.068 374.061 152.988 375.271 153.128C375.995 153.24 376.71 153.404 377.411 153.618C378.329 153.748 379.262 153.748 380.181 153.618C380.969 153.507 381.772 153.578 382.529 153.824C383.287 154.07 383.978 154.485 384.551 155.038C384.994 155.53 385.349 156.095 385.601 156.708C385.605 156.352 385.536 155.999 385.399 155.67C385.261 155.341 385.058 155.045 384.801 154.798C384.28 154.226 383.638 153.778 382.921 153.488C382.04 153.146 381.089 153.026 380.151 153.138C379.271 153.248 378.38 153.248 377.501 153.138C376.778 152.937 376.038 152.806 375.291 152.748C374.608 152.694 373.921 152.775 373.271 152.988Z" fill="#FF9A6C"/>
<path d="M376.04 152.778C376.15 152.838 376.47 152.378 376.43 151.728C376.39 151.078 376.02 150.668 375.92 150.728C375.82 150.788 375.92 151.228 375.92 151.728C375.92 152.228 375.91 152.728 376.04 152.778Z" fill="#FF9A6C"/>
<path d="M371.4 156.938C373.379 157.127 375.375 156.971 377.3 156.478C378 156.249 378.736 156.154 379.47 156.198C380.039 156.324 380.541 156.655 380.88 157.128C381.175 157.599 381.436 158.09 381.66 158.598C381.695 157.992 381.522 157.393 381.17 156.898C380.811 156.316 380.236 155.899 379.57 155.738C378.776 155.645 377.972 155.724 377.21 155.968C374.04 156.688 371.4 156.798 371.4 156.938Z" fill="#FF9A6C"/>
<path d="M370.36 160.498C370.837 160.609 371.333 160.609 371.81 160.498C372.7 160.398 373.9 160.088 375.2 159.828C375.801 159.694 376.415 159.634 377.03 159.648C377.509 159.657 377.97 159.826 378.34 160.128C378.672 160.434 378.899 160.836 378.99 161.278C378.99 161.278 379.08 161.148 379.07 160.878C379.029 160.498 378.856 160.144 378.58 159.878C378.175 159.479 377.638 159.24 377.07 159.208C376.4 159.162 375.726 159.212 375.07 159.358C373.73 159.618 372.57 159.978 371.71 160.158C371.25 160.225 370.798 160.339 370.36 160.498Z" fill="#FF9A6C"/>
<path d="M372.66 163.318C372.58 163.378 373.25 164.078 374.47 164.078L374.23 163.868C374.23 164.078 374.23 164.288 374.3 164.498C374.333 165.355 374.523 166.2 374.86 166.988C374.993 166.144 374.966 165.282 374.78 164.448L374.69 163.818V163.598H374.48C373.865 163.573 373.255 163.479 372.66 163.318Z" fill="#FF9A6C"/>
<path d="M421.37 160.948C421.37 160.948 434.6 164.148 434.57 181.698C434.54 199.248 430.57 207.908 430.57 207.908L406.18 194.598L411.66 180.968L421.37 160.948Z" fill="#455A64"/>
<path d="M430.57 207.908C430.395 207.857 430.227 207.783 430.07 207.688L428.65 206.968L423.45 204.228L406.06 194.858L405.86 194.758L405.94 194.548L407.25 191.128C408.81 187.078 410.25 183.218 411.65 179.708C412.33 177.958 412.97 176.288 413.58 174.708C414.113 173.24 414.758 171.816 415.51 170.448C416.515 168.401 418.03 166.648 419.91 165.358C420.438 165.028 421.021 164.794 421.63 164.668C421.785 164.635 421.942 164.615 422.1 164.608H422.27C421.47 164.775 420.708 165.086 420.02 165.528C418.216 166.848 416.775 168.602 415.83 170.628C415.112 171.991 414.493 173.405 413.98 174.858C413.39 176.428 412.76 178.098 412.09 179.858L407.73 191.298L406.42 194.718L406.3 194.398L423.66 203.928L428.78 206.808L430.15 207.608C430.301 207.692 430.442 207.793 430.57 207.908Z" fill="#263238"/>
</svg>
